<svg xmlns="http://www.w3.org/2000/svg" xmlns:xlink="http://www.w3.org/1999/xlink" width="121" zoomAndPan="magnify" viewBox="0 0 90.75 92.249997" height="123" preserveAspectRatio="xMidYMid meet" version="1.0"><defs><clipPath id="1520b2dcf1"><path d="M 0.636719 0.703125 L 89.824219 0.703125 L 89.824219 91.507812 L 0.636719 91.507812 Z M 0.636719 0.703125 " clip-rule="nonzero"/></clipPath><clipPath id="8a77405492"><path d="M 28.984375 0.703125 L 61.472656 0.703125 C 77.128906 0.703125 89.824219 13.394531 89.824219 29.050781 L 89.824219 63.316406 C 89.824219 78.972656 77.128906 91.664062 61.472656 91.664062 L 28.984375 91.664062 C 13.328125 91.664062 0.636719 78.972656 0.636719 63.316406 L 0.636719 29.050781 C 0.636719 13.394531 13.328125 0.703125 28.984375 0.703125 " clip-rule="nonzero"/></clipPath><linearGradient x1="0.0000000200189" gradientTransform="matrix(0.348383, 0, 0, 0.355317, 0.636387, 0.703729)" y1="0" x2="255.999973" gradientUnits="userSpaceOnUse" y2="0" id="883479e87a"><stop stop-opacity="1" stop-color="rgb(36.499023%, 87.799072%, 90.19928%)" offset="0"/><stop stop-opacity="1" stop-color="rgb(36.384583%, 87.637329%, 90.234375%)" offset="0.0078125"/><stop stop-opacity="1" stop-color="rgb(36.154175%, 87.312317%, 90.304565%)" offset="0.015625"/><stop stop-opacity="1" stop-color="rgb(35.925293%, 86.988831%, 90.374756%)" offset="0.0234375"/><stop stop-opacity="1" stop-color="rgb(35.694885%, 86.663818%, 90.444946%)" offset="0.03125"/><stop stop-opacity="1" stop-color="rgb(35.466003%, 86.340332%, 90.515137%)" offset="0.0390625"/><stop stop-opacity="1" stop-color="rgb(35.235596%, 86.01532%, 90.585327%)" offset="0.046875"/><stop stop-opacity="1" stop-color="rgb(35.005188%, 85.691833%, 90.655518%)" offset="0.0546875"/><stop stop-opacity="1" stop-color="rgb(34.776306%, 85.366821%, 90.727234%)" offset="0.0625"/><stop stop-opacity="1" stop-color="rgb(34.545898%, 85.043335%, 90.797424%)" offset="0.0703125"/><stop stop-opacity="1" stop-color="rgb(34.317017%, 84.718323%, 90.867615%)" offset="0.078125"/><stop stop-opacity="1" stop-color="rgb(34.086609%, 84.394836%, 90.937805%)" offset="0.0859375"/><stop stop-opacity="1" stop-color="rgb(33.857727%, 84.069824%, 91.007996%)" offset="0.09375"/><stop stop-opacity="1" stop-color="rgb(33.627319%, 83.746338%, 91.078186%)" offset="0.101563"/><stop stop-opacity="1" stop-color="rgb(33.398438%, 83.421326%, 91.148376%)" offset="0.109375"/><stop stop-opacity="1" stop-color="rgb(33.16803%, 83.097839%, 91.218567%)" offset="0.117188"/><stop stop-opacity="1" stop-color="rgb(32.939148%, 82.772827%, 91.288757%)" offset="0.125"/><stop stop-opacity="1" stop-color="rgb(32.70874%, 82.449341%, 91.358948%)" offset="0.132812"/><stop stop-opacity="1" stop-color="rgb(32.479858%, 82.124329%, 91.429138%)" offset="0.140625"/><stop stop-opacity="1" stop-color="rgb(32.249451%, 81.800842%, 91.499329%)" offset="0.148438"/><stop stop-opacity="1" stop-color="rgb(32.020569%, 81.477356%, 91.569519%)" offset="0.15625"/><stop stop-opacity="1" stop-color="rgb(31.790161%, 81.152344%, 91.641235%)" offset="0.164062"/><stop stop-opacity="1" stop-color="rgb(31.561279%, 80.828857%, 91.711426%)" offset="0.171875"/><stop stop-opacity="1" stop-color="rgb(31.330872%, 80.503845%, 91.781616%)" offset="0.179688"/><stop stop-opacity="1" stop-color="rgb(31.100464%, 80.180359%, 91.851807%)" offset="0.1875"/><stop stop-opacity="1" stop-color="rgb(30.871582%, 79.855347%, 91.921997%)" offset="0.195312"/><stop stop-opacity="1" stop-color="rgb(30.641174%, 79.53186%, 91.992188%)" offset="0.203125"/><stop stop-opacity="1" stop-color="rgb(30.412292%, 79.206848%, 92.062378%)" offset="0.210938"/><stop stop-opacity="1" stop-color="rgb(30.181885%, 78.883362%, 92.132568%)" offset="0.21875"/><stop stop-opacity="1" stop-color="rgb(29.953003%, 78.55835%, 92.202759%)" offset="0.226563"/><stop stop-opacity="1" stop-color="rgb(29.722595%, 78.234863%, 92.272949%)" offset="0.234375"/><stop stop-opacity="1" stop-color="rgb(29.493713%, 77.909851%, 92.34314%)" offset="0.242188"/><stop stop-opacity="1" stop-color="rgb(29.263306%, 77.586365%, 92.41333%)" offset="0.25"/><stop stop-opacity="1" stop-color="rgb(29.034424%, 77.261353%, 92.485046%)" offset="0.257812"/><stop stop-opacity="1" stop-color="rgb(28.804016%, 76.937866%, 92.555237%)" offset="0.265625"/><stop stop-opacity="1" stop-color="rgb(28.575134%, 76.612854%, 92.625427%)" offset="0.273438"/><stop stop-opacity="1" stop-color="rgb(28.344727%, 76.289368%, 92.695618%)" offset="0.28125"/><stop stop-opacity="1" stop-color="rgb(28.115845%, 75.964355%, 92.765808%)" offset="0.289062"/><stop stop-opacity="1" stop-color="rgb(27.885437%, 75.640869%, 92.835999%)" offset="0.296875"/><stop stop-opacity="1" stop-color="rgb(27.656555%, 75.315857%, 92.906189%)" offset="0.304688"/><stop stop-opacity="1" stop-color="rgb(27.426147%, 74.992371%, 92.976379%)" offset="0.3125"/><stop stop-opacity="1" stop-color="rgb(27.19574%, 74.667358%, 93.04657%)" offset="0.320312"/><stop stop-opacity="1" stop-color="rgb(26.966858%, 74.343872%, 93.11676%)" offset="0.328125"/><stop stop-opacity="1" stop-color="rgb(26.73645%, 74.01886%, 93.186951%)" offset="0.335938"/><stop stop-opacity="1" stop-color="rgb(26.507568%, 73.695374%, 93.257141%)" offset="0.34375"/><stop stop-opacity="1" stop-color="rgb(26.277161%, 73.371887%, 93.327332%)" offset="0.351562"/><stop stop-opacity="1" stop-color="rgb(26.048279%, 73.046875%, 93.399048%)" offset="0.359375"/><stop stop-opacity="1" stop-color="rgb(25.817871%, 72.723389%, 93.469238%)" offset="0.367188"/><stop stop-opacity="1" stop-color="rgb(25.588989%, 72.398376%, 93.539429%)" offset="0.375"/><stop stop-opacity="1" stop-color="rgb(25.358582%, 72.07489%, 93.609619%)" offset="0.382812"/><stop stop-opacity="1" stop-color="rgb(25.1297%, 71.749878%, 93.67981%)" offset="0.390625"/><stop stop-opacity="1" stop-color="rgb(24.899292%, 71.426392%, 93.75%)" offset="0.398438"/><stop stop-opacity="1" stop-color="rgb(24.67041%, 71.101379%, 93.82019%)" offset="0.40625"/><stop stop-opacity="1" stop-color="rgb(24.440002%, 70.777893%, 93.890381%)" offset="0.414062"/><stop stop-opacity="1" stop-color="rgb(24.211121%, 70.452881%, 93.960571%)" offset="0.421875"/><stop stop-opacity="1" stop-color="rgb(23.980713%, 70.129395%, 94.030762%)" offset="0.429688"/><stop stop-opacity="1" stop-color="rgb(23.751831%, 69.804382%, 94.100952%)" offset="0.4375"/><stop stop-opacity="1" stop-color="rgb(23.521423%, 69.480896%, 94.171143%)" offset="0.445313"/><stop stop-opacity="1" stop-color="rgb(23.292542%, 69.155884%, 94.242859%)" offset="0.453125"/><stop stop-opacity="1" stop-color="rgb(23.062134%, 68.832397%, 94.313049%)" offset="0.460938"/><stop stop-opacity="1" stop-color="rgb(22.831726%, 68.507385%, 94.38324%)" offset="0.46875"/><stop stop-opacity="1" stop-color="rgb(22.602844%, 68.183899%, 94.45343%)" offset="0.476563"/><stop stop-opacity="1" stop-color="rgb(22.372437%, 67.858887%, 94.523621%)" offset="0.484375"/><stop stop-opacity="1" stop-color="rgb(22.143555%, 67.5354%, 94.593811%)" offset="0.492188"/><stop stop-opacity="1" stop-color="rgb(21.913147%, 67.210388%, 94.664001%)" offset="0.5"/><stop stop-opacity="1" stop-color="rgb(21.684265%, 66.886902%, 94.734192%)" offset="0.507812"/><stop stop-opacity="1" stop-color="rgb(21.453857%, 66.56189%, 94.804382%)" offset="0.515625"/><stop stop-opacity="1" stop-color="rgb(21.224976%, 66.238403%, 94.874573%)" offset="0.523437"/><stop stop-opacity="1" stop-color="rgb(20.994568%, 65.913391%, 94.944763%)" offset="0.53125"/><stop stop-opacity="1" stop-color="rgb(20.765686%, 65.589905%, 95.014954%)" offset="0.539062"/><stop stop-opacity="1" stop-color="rgb(20.535278%, 65.266418%, 95.085144%)" offset="0.546875"/><stop stop-opacity="1" stop-color="rgb(20.306396%, 64.941406%, 95.15686%)" offset="0.554687"/><stop stop-opacity="1" stop-color="rgb(20.075989%, 64.61792%, 95.227051%)" offset="0.5625"/><stop stop-opacity="1" stop-color="rgb(19.847107%, 64.292908%, 95.297241%)" offset="0.570312"/><stop stop-opacity="1" stop-color="rgb(19.616699%, 63.969421%, 95.367432%)" offset="0.578125"/><stop stop-opacity="1" stop-color="rgb(19.387817%, 63.644409%, 95.437622%)" offset="0.585937"/><stop stop-opacity="1" stop-color="rgb(19.15741%, 63.320923%, 95.507812%)" offset="0.59375"/><stop stop-opacity="1" stop-color="rgb(18.927002%, 62.995911%, 95.578003%)" offset="0.601562"/><stop stop-opacity="1" stop-color="rgb(18.69812%, 62.672424%, 95.648193%)" offset="0.609375"/><stop stop-opacity="1" stop-color="rgb(18.467712%, 62.347412%, 95.718384%)" offset="0.617187"/><stop stop-opacity="1" stop-color="rgb(18.238831%, 62.023926%, 95.788574%)" offset="0.625"/><stop stop-opacity="1" stop-color="rgb(18.008423%, 61.698914%, 95.858765%)" offset="0.632812"/><stop stop-opacity="1" stop-color="rgb(17.779541%, 61.375427%, 95.928955%)" offset="0.640625"/><stop stop-opacity="1" stop-color="rgb(17.549133%, 61.050415%, 96.000671%)" offset="0.648437"/><stop stop-opacity="1" stop-color="rgb(17.320251%, 60.726929%, 96.070862%)" offset="0.65625"/><stop stop-opacity="1" stop-color="rgb(17.089844%, 60.401917%, 96.141052%)" offset="0.664062"/><stop stop-opacity="1" stop-color="rgb(16.860962%, 60.07843%, 96.211243%)" offset="0.671875"/><stop stop-opacity="1" stop-color="rgb(16.630554%, 59.753418%, 96.281433%)" offset="0.679688"/><stop stop-opacity="1" stop-color="rgb(16.401672%, 59.429932%, 96.351624%)" offset="0.6875"/><stop stop-opacity="1" stop-color="rgb(16.171265%, 59.104919%, 96.421814%)" offset="0.695313"/><stop stop-opacity="1" stop-color="rgb(15.942383%, 58.781433%, 96.492004%)" offset="0.703125"/><stop stop-opacity="1" stop-color="rgb(15.711975%, 58.456421%, 96.562195%)" offset="0.710938"/><stop stop-opacity="1" stop-color="rgb(15.483093%, 58.132935%, 96.632385%)" offset="0.71875"/><stop stop-opacity="1" stop-color="rgb(15.252686%, 57.807922%, 96.702576%)" offset="0.726563"/><stop stop-opacity="1" stop-color="rgb(15.023804%, 57.484436%, 96.772766%)" offset="0.734375"/><stop stop-opacity="1" stop-color="rgb(14.793396%, 57.16095%, 96.842957%)" offset="0.742188"/><stop stop-opacity="1" stop-color="rgb(14.562988%, 56.835938%, 96.914673%)" offset="0.75"/><stop stop-opacity="1" stop-color="rgb(14.334106%, 56.512451%, 96.984863%)" offset="0.757813"/><stop stop-opacity="1" stop-color="rgb(14.103699%, 56.187439%, 97.055054%)" offset="0.765625"/><stop stop-opacity="1" stop-color="rgb(13.874817%, 55.863953%, 97.125244%)" offset="0.773438"/><stop stop-opacity="1" stop-color="rgb(13.644409%, 55.53894%, 97.195435%)" offset="0.78125"/><stop stop-opacity="1" stop-color="rgb(13.415527%, 55.215454%, 97.265625%)" offset="0.789062"/><stop stop-opacity="1" stop-color="rgb(13.18512%, 54.890442%, 97.335815%)" offset="0.796875"/><stop stop-opacity="1" stop-color="rgb(12.956238%, 54.566956%, 97.406006%)" offset="0.804688"/><stop stop-opacity="1" stop-color="rgb(12.72583%, 54.241943%, 97.476196%)" offset="0.8125"/><stop stop-opacity="1" stop-color="rgb(12.496948%, 53.918457%, 97.546387%)" offset="0.820312"/><stop stop-opacity="1" stop-color="rgb(12.266541%, 53.593445%, 97.616577%)" offset="0.828125"/><stop stop-opacity="1" stop-color="rgb(12.037659%, 53.269958%, 97.686768%)" offset="0.835938"/><stop stop-opacity="1" stop-color="rgb(11.807251%, 52.944946%, 97.758484%)" offset="0.84375"/><stop stop-opacity="1" stop-color="rgb(11.578369%, 52.62146%, 97.828674%)" offset="0.851562"/><stop stop-opacity="1" stop-color="rgb(11.347961%, 52.296448%, 97.898865%)" offset="0.859375"/><stop stop-opacity="1" stop-color="rgb(11.11908%, 51.972961%, 97.969055%)" offset="0.867188"/><stop stop-opacity="1" stop-color="rgb(10.888672%, 51.647949%, 98.039246%)" offset="0.875"/><stop stop-opacity="1" stop-color="rgb(10.658264%, 51.324463%, 98.109436%)" offset="0.882812"/><stop stop-opacity="1" stop-color="rgb(10.429382%, 50.999451%, 98.179626%)" offset="0.890625"/><stop stop-opacity="1" stop-color="rgb(10.198975%, 50.675964%, 98.249817%)" offset="0.898438"/><stop stop-opacity="1" stop-color="rgb(9.970093%, 50.350952%, 98.320007%)" offset="0.90625"/><stop stop-opacity="1" stop-color="rgb(9.739685%, 50.027466%, 98.390198%)" offset="0.914062"/><stop stop-opacity="1" stop-color="rgb(9.510803%, 49.702454%, 98.460388%)" offset="0.921875"/><stop stop-opacity="1" stop-color="rgb(9.280396%, 49.378967%, 98.530579%)" offset="0.929688"/><stop stop-opacity="1" stop-color="rgb(9.051514%, 49.055481%, 98.600769%)" offset="0.9375"/><stop stop-opacity="1" stop-color="rgb(8.821106%, 48.730469%, 98.672485%)" offset="0.945312"/><stop stop-opacity="1" stop-color="rgb(8.592224%, 48.406982%, 98.742676%)" offset="0.953125"/><stop stop-opacity="1" stop-color="rgb(8.361816%, 48.08197%, 98.812866%)" offset="0.960938"/><stop stop-opacity="1" stop-color="rgb(8.132935%, 47.758484%, 98.883057%)" offset="0.96875"/><stop stop-opacity="1" stop-color="rgb(7.902527%, 47.433472%, 98.953247%)" offset="0.976562"/><stop stop-opacity="1" stop-color="rgb(7.673645%, 47.109985%, 99.023438%)" offset="0.984375"/><stop stop-opacity="1" stop-color="rgb(7.443237%, 46.784973%, 99.093628%)" offset="0.992188"/><stop stop-opacity="1" stop-color="rgb(7.214355%, 46.461487%, 99.163818%)" offset="1"/></linearGradient><clipPath id="91c7a0965f"><path d="M 17.257812 22.484375 L 77.8125 22.484375 L 77.8125 71.503906 L 17.257812 71.503906 Z M 17.257812 22.484375 " clip-rule="nonzero"/></clipPath></defs><g clip-path="url(#1520b2dcf1)"><g clip-path="url(#8a77405492)"><path fill="url(#883479e87a)" d="M 0.636719 0.703125 L 0.636719 91.507812 L 89.824219 91.507812 L 89.824219 0.703125 Z M 0.636719 0.703125 " fill-rule="nonzero"/></g></g><g clip-path="url(#91c7a0965f)"><path fill="#fcfefc" d="M 56.035156 42.890625 C 55.589844 42.890625 55.226562 42.546875 55.226562 42.089844 L 55.226562 32.046875 C 55.226562 31.394531 55.964844 31.023438 56.496094 31.394531 L 63.675781 36.417969 C 64.125 36.734375 64.125 37.398438 63.675781 37.71875 L 56.496094 42.753906 C 56.355469 42.851562 56.1875 42.890625 56.035156 42.890625 Z M 73.972656 51.664062 L 61.078125 51.664062 L 61.078125 55.746094 L 68.523438 55.746094 C 68.972656 55.746094 69.335938 56.105469 69.335938 56.546875 L 69.335938 58.496094 C 69.335938 60.019531 68.078125 61.25 66.554688 61.25 L 46.101562 61.25 C 44.566406 61.25 43.324219 60.019531 43.324219 58.496094 L 43.324219 56.546875 C 43.324219 56.105469 43.6875 55.746094 44.121094 55.746094 L 51.578125 55.746094 L 51.578125 51.664062 L 41.71875 51.664062 L 41.71875 69.039062 C 41.71875 70.394531 40.597656 71.5 39.230469 71.5 L 19.742188 71.5 C 18.375 71.5 17.257812 70.394531 17.257812 69.039062 L 17.257812 34.371094 C 17.257812 33.015625 18.375 31.90625 19.742188 31.90625 L 34.84375 31.90625 L 34.84375 26.292969 C 34.84375 24.1875 36.5625 22.488281 38.6875 22.488281 L 73.972656 22.488281 C 76.082031 22.488281 77.8125 24.1875 77.8125 26.292969 L 77.8125 47.859375 C 77.8125 49.949219 76.082031 51.664062 73.972656 51.664062 Z M 41.71875 50.058594 L 73.972656 50.058594 C 75.203125 50.058594 76.191406 49.0625 76.191406 47.859375 L 76.191406 26.292969 C 76.191406 25.074219 75.203125 24.078125 73.972656 24.078125 L 38.6875 24.078125 C 37.457031 24.078125 36.449219 25.074219 36.449219 26.292969 L 36.449219 31.90625 C 37.050781 31.90625 39.148438 31.8125 39.84375 31.992188 C 40.921875 32.265625 41.71875 33.222656 41.71875 34.371094 Z M 19.742188 33.511719 C 19.269531 33.511719 18.878906 33.898438 18.878906 34.371094 L 18.878906 37.59375 L 40.097656 37.59375 L 40.097656 34.371094 C 40.097656 33.886719 39.691406 33.511719 39.230469 33.511719 Z M 18.878906 39.183594 L 18.878906 64.226562 L 40.097656 64.226562 L 40.097656 39.183594 Z M 18.878906 65.828125 L 18.878906 69.039062 C 18.878906 69.523438 19.269531 69.910156 19.742188 69.910156 L 39.230469 69.910156 C 39.707031 69.910156 40.097656 69.523438 40.097656 69.039062 L 40.097656 65.828125 Z M 26.476562 36.347656 L 24.128906 36.347656 C 23.066406 36.347656 23.066406 34.757812 24.128906 34.757812 L 26.476562 34.757812 C 27.539062 34.757812 27.539062 36.347656 26.476562 36.347656 Z M 32.664062 36.347656 L 28.878906 36.347656 C 27.816406 36.347656 27.816406 34.757812 28.878906 34.757812 L 32.664062 34.757812 C 33.726562 34.757812 33.726562 36.347656 32.664062 36.347656 Z M 31.757812 68.664062 L 27.214844 68.664062 C 26.15625 68.664062 26.15625 67.074219 27.214844 67.074219 L 31.757812 67.074219 C 32.820312 67.074219 32.820312 68.664062 31.757812 68.664062 Z M 29.492188 59.285156 C 25.261719 59.285156 21.824219 55.898438 21.824219 51.703125 C 21.824219 47.527344 25.261719 44.125 29.492188 44.125 C 33.710938 44.125 37.148438 47.527344 37.148438 51.703125 C 37.148438 55.898438 33.710938 59.285156 29.492188 59.285156 Z M 29.492188 45.714844 C 26.15625 45.714844 23.445312 48.414062 23.445312 51.703125 C 23.445312 55.011719 26.15625 57.695312 29.492188 57.695312 C 32.820312 57.695312 35.527344 55.011719 35.527344 51.703125 C 35.527344 48.414062 32.820312 45.714844 29.492188 45.714844 Z M 27.566406 55.8125 C 27.117188 55.8125 26.753906 55.46875 26.753906 55.023438 L 26.753906 48.398438 C 26.753906 47.75 27.496094 47.375 28.027344 47.75 L 32.761719 51.054688 C 33.222656 51.371094 33.222656 52.035156 32.761719 52.355469 L 28.027344 55.675781 C 27.886719 55.773438 27.734375 55.8125 27.566406 55.8125 Z M 28.375 49.933594 L 28.375 53.476562 L 30.90625 51.703125 Z M 44.929688 57.347656 C 44.929688 58.152344 44.71875 59.660156 46.101562 59.660156 L 66.554688 59.660156 C 67.921875 59.660156 67.714844 58.152344 67.714844 57.347656 Z M 53.1875 55.746094 L 59.457031 55.746094 L 59.457031 51.664062 L 53.1875 51.664062 Z M 71.082031 46.296875 L 46.828125 46.296875 C 46.382812 46.296875 46.019531 45.9375 46.019531 45.492188 L 46.019531 28.644531 C 46.019531 28.199219 46.382812 27.839844 46.828125 27.839844 L 71.082031 27.839844 C 71.527344 27.839844 71.890625 28.199219 71.890625 28.644531 L 71.890625 45.492188 C 71.890625 45.9375 71.527344 46.296875 71.082031 46.296875 Z M 47.625 44.691406 L 70.285156 44.691406 L 70.285156 29.445312 L 47.625 29.445312 Z M 56.832031 33.582031 L 56.832031 40.554688 L 61.820312 37.066406 Z M 56.832031 33.582031 " fill-opacity="1" fill-rule="evenodd"/></g></svg>