<svg xmlns="http://www.w3.org/2000/svg" xmlns:xlink="http://www.w3.org/1999/xlink" width="183" zoomAndPan="magnify" viewBox="0 0 137.25 136.499995" height="182" preserveAspectRatio="xMidYMid meet" version="1.0"><defs><clipPath id="159eed201c"><path d="M 25 65 L 67 65 L 67 111 L 25 111 Z M 25 65 " clip-rule="nonzero"/></clipPath><clipPath id="d649560c7c"><path d="M 1.523438 74.417969 L 88.660156 6.636719 L 136.292969 67.867188 L 49.15625 135.648438 Z M 1.523438 74.417969 " clip-rule="nonzero"/></clipPath><clipPath id="9259e46bdd"><path d="M 1.523438 74.417969 L 88.660156 6.636719 L 136.292969 67.867188 L 49.15625 135.648438 Z M 1.523438 74.417969 " clip-rule="nonzero"/></clipPath><clipPath id="5273f5eed5"><path d="M 71 32 L 114 32 L 114 78 L 71 78 Z M 71 32 " clip-rule="nonzero"/></clipPath><clipPath id="a46034e9bc"><path d="M 1.523438 74.417969 L 88.660156 6.636719 L 136.292969 67.867188 L 49.15625 135.648438 Z M 1.523438 74.417969 " clip-rule="nonzero"/></clipPath><clipPath id="de29d433b6"><path d="M 1.523438 74.417969 L 88.660156 6.636719 L 136.292969 67.867188 L 49.15625 135.648438 Z M 1.523438 74.417969 " clip-rule="nonzero"/></clipPath><clipPath id="fd00bad767"><path d="M 52 33 L 87 33 L 87 110 L 52 110 Z M 52 33 " clip-rule="nonzero"/></clipPath><clipPath id="2b534a7ca4"><path d="M 1.523438 74.417969 L 88.660156 6.636719 L 136.292969 67.867188 L 49.15625 135.648438 Z M 1.523438 74.417969 " clip-rule="nonzero"/></clipPath><clipPath id="e72c5ea2c5"><path d="M 1.523438 74.417969 L 88.660156 6.636719 L 136.292969 67.867188 L 49.15625 135.648438 Z M 1.523438 74.417969 " clip-rule="nonzero"/></clipPath><clipPath id="90f409ba69"><path d="M 24 59 L 66 59 L 66 105 L 24 105 Z M 24 59 " clip-rule="nonzero"/></clipPath><clipPath id="c4c1ca299b"><path d="M 0.605469 67.984375 L 87.746094 0.203125 L 135.375 61.433594 L 48.238281 129.21875 Z M 0.605469 67.984375 " clip-rule="nonzero"/></clipPath><clipPath id="ba08e414a4"><path d="M 0.605469 67.984375 L 87.746094 0.203125 L 135.375 61.433594 L 48.238281 129.21875 Z M 0.605469 67.984375 " clip-rule="nonzero"/></clipPath><clipPath id="61762cffb8"><path d="M 70 25 L 113 25 L 113 72 L 70 72 Z M 70 25 " clip-rule="nonzero"/></clipPath><clipPath id="0c78a3774e"><path d="M 0.605469 67.984375 L 87.746094 0.203125 L 135.375 61.433594 L 48.238281 129.21875 Z M 0.605469 67.984375 " clip-rule="nonzero"/></clipPath><clipPath id="d1be88307d"><path d="M 0.605469 67.984375 L 87.746094 0.203125 L 135.375 61.433594 L 48.238281 129.21875 Z M 0.605469 67.984375 " clip-rule="nonzero"/></clipPath><clipPath id="4b984f39e6"><path d="M 51 26 L 86 26 L 86 103 L 51 103 Z M 51 26 " clip-rule="nonzero"/></clipPath><clipPath id="9be78468bc"><path d="M 0.605469 67.984375 L 87.746094 0.203125 L 135.375 61.433594 L 48.238281 129.21875 Z M 0.605469 67.984375 " clip-rule="nonzero"/></clipPath><clipPath id="dff9cd44c8"><path d="M 0.605469 67.984375 L 87.746094 0.203125 L 135.375 61.433594 L 48.238281 129.21875 Z M 0.605469 67.984375 " clip-rule="nonzero"/></clipPath></defs><g clip-path="url(#159eed201c)"><g clip-path="url(#d649560c7c)"><g clip-path="url(#9259e46bdd)"><path fill="#00baf3" d="M 64.539062 109.839844 C 63.25 110.84375 62.054688 111.082031 60.523438 110.886719 L 29.925781 107.003906 C 26.863281 106.617188 24.851562 104.027344 25.230469 100.96875 L 28.992188 70.351562 C 29.371094 67.292969 31.949219 65.285156 35.007812 65.675781 C 38.066406 66.0625 40.082031 68.652344 39.703125 71.710938 L 36.597656 96.96875 L 61.84375 100.171875 C 64.902344 100.558594 66.914062 103.148438 66.539062 106.207031 C 66.351562 107.738281 65.828125 108.839844 64.539062 109.839844 Z M 64.539062 109.839844 " fill-opacity="1" fill-rule="nonzero"/></g></g></g><g clip-path="url(#5273f5eed5)"><g clip-path="url(#a46034e9bc)"><g clip-path="url(#de29d433b6)"><path fill="#00baf3" d="M 107.492188 76.425781 C 106.203125 77.429688 105.011719 77.667969 103.480469 77.472656 C 100.421875 77.082031 98.40625 74.496094 98.785156 71.433594 L 101.890625 46.179688 L 76.644531 42.976562 C 73.585938 42.585938 71.574219 40 71.949219 36.9375 C 72.324219 33.878906 74.902344 31.871094 77.964844 32.261719 L 108.5625 36.144531 C 111.621094 36.53125 113.636719 39.117188 113.257812 42.179688 L 109.492188 72.792969 C 109.304688 74.324219 108.78125 75.425781 107.492188 76.425781 Z M 107.492188 76.425781 " fill-opacity="1" fill-rule="nonzero"/></g></g></g><g clip-path="url(#fd00bad767)"><g clip-path="url(#2b534a7ca4)"><g clip-path="url(#e72c5ea2c5)"><path fill="#00baf3" d="M 84.132812 108.441406 C 83.703125 108.773438 83.273438 109.109375 82.507812 109.011719 C 79.691406 109.820312 76.722656 108.667969 75.570312 105.410156 L 52.5 40.300781 C 51.683594 37.476562 52.824219 34.511719 56.074219 33.371094 C 58.890625 32.5625 61.859375 33.714844 63.011719 36.96875 L 86.082031 102.082031 C 86.5625 104.472656 85.851562 107.105469 84.132812 108.441406 Z M 84.132812 108.441406 " fill-opacity="1" fill-rule="nonzero"/></g></g></g><g clip-path="url(#90f409ba69)"><g clip-path="url(#c4c1ca299b)"><g clip-path="url(#ba08e414a4)"><path fill="#facc15" d="M 63.621094 103.410156 C 62.332031 104.410156 61.136719 104.648438 59.609375 104.453125 L 29.007812 100.570312 C 25.949219 100.183594 23.933594 97.597656 24.3125 94.535156 L 28.078125 63.921875 C 28.453125 60.859375 31.03125 58.855469 34.089844 59.242188 C 37.152344 59.628906 39.164062 62.21875 38.785156 65.28125 L 35.679688 90.535156 L 60.925781 93.738281 C 63.984375 94.128906 65.996094 96.714844 65.621094 99.777344 C 65.433594 101.304688 64.910156 102.40625 63.621094 103.410156 Z M 63.621094 103.410156 " fill-opacity="1" fill-rule="nonzero"/></g></g></g><g clip-path="url(#61762cffb8)"><g clip-path="url(#0c78a3774e)"><g clip-path="url(#d1be88307d)"><path fill="#facc15" d="M 106.578125 69.992188 C 105.289062 70.996094 104.09375 71.234375 102.5625 71.039062 C 99.503906 70.652344 97.492188 68.0625 97.867188 65.003906 L 100.972656 39.746094 L 75.726562 36.542969 C 72.667969 36.15625 70.65625 33.566406 71.03125 30.503906 C 71.410156 27.445312 73.984375 25.4375 77.046875 25.828125 L 107.644531 29.710938 C 110.707031 30.097656 112.71875 32.683594 112.34375 35.746094 L 108.578125 66.359375 C 108.386719 67.890625 107.863281 68.992188 106.578125 69.992188 Z M 106.578125 69.992188 " fill-opacity="1" fill-rule="nonzero"/></g></g></g><g clip-path="url(#4b984f39e6)"><g clip-path="url(#9be78468bc)"><g clip-path="url(#dff9cd44c8)"><path fill="#facc15" d="M 83.214844 102.007812 C 82.785156 102.34375 82.355469 102.675781 81.59375 102.578125 C 78.773438 103.386719 75.808594 102.234375 74.652344 98.980469 L 51.585938 33.867188 C 50.765625 31.042969 51.90625 28.078125 55.15625 26.9375 C 57.972656 26.128906 60.941406 27.28125 62.09375 30.539062 L 85.164062 95.648438 C 85.644531 98.042969 84.933594 100.671875 83.214844 102.007812 Z M 83.214844 102.007812 " fill-opacity="1" fill-rule="nonzero"/></g></g></g></svg>