<svg xmlns="http://www.w3.org/2000/svg" xmlns:xlink="http://www.w3.org/1999/xlink" width="469" zoomAndPan="magnify" viewBox="0 0 351.75 262.499992" height="350" preserveAspectRatio="xMidYMid meet" version="1.0"><defs><clipPath id="a69e685fe1"><path d="M 190 37 L 226 37 L 226 68 L 190 68 Z M 190 37 " clip-rule="nonzero"/></clipPath><clipPath id="2db1744652"><path d="M 0.613281 59.425781 L 314.890625 0.132812 L 351.273438 192.964844 L 36.992188 252.257812 Z M 0.613281 59.425781 " clip-rule="nonzero"/></clipPath><clipPath id="b85e539b2e"><path d="M 0.613281 59.425781 L 314.890625 0.132812 L 351.273438 192.964844 L 36.992188 252.257812 Z M 0.613281 59.425781 " clip-rule="nonzero"/></clipPath><clipPath id="7adbd68c0e"><path d="M 30 27 L 331 27 L 331 238 L 30 238 Z M 30 27 " clip-rule="nonzero"/></clipPath><clipPath id="4918d250f5"><path d="M 0.613281 59.425781 L 314.890625 0.132812 L 351.273438 192.964844 L 36.992188 252.257812 Z M 0.613281 59.425781 " clip-rule="nonzero"/></clipPath><clipPath id="69985c244c"><path d="M 0.613281 59.425781 L 314.890625 0.132812 L 351.273438 192.964844 L 36.992188 252.257812 Z M 0.613281 59.425781 " clip-rule="nonzero"/></clipPath><clipPath id="c8c03e8926"><path d="M 191 46 L 226 46 L 226 77 L 191 77 Z M 191 46 " clip-rule="nonzero"/></clipPath><clipPath id="bf90c8d567"><path d="M 0.746094 68.699219 L 315.027344 9.40625 L 351.40625 202.242188 L 37.125 261.53125 Z M 0.746094 68.699219 " clip-rule="nonzero"/></clipPath><clipPath id="296f7b320c"><path d="M 0.746094 68.699219 L 315.027344 9.40625 L 351.40625 202.242188 L 37.125 261.53125 Z M 0.746094 68.699219 " clip-rule="nonzero"/></clipPath><clipPath id="a957fcdfc3"><path d="M 30 37 L 331 37 L 331 247 L 30 247 Z M 30 37 " clip-rule="nonzero"/></clipPath><clipPath id="4851d30de2"><path d="M 0.746094 68.699219 L 315.027344 9.40625 L 351.40625 202.242188 L 37.125 261.53125 Z M 0.746094 68.699219 " clip-rule="nonzero"/></clipPath><clipPath id="d1fe264dd1"><path d="M 0.746094 68.699219 L 315.027344 9.40625 L 351.40625 202.242188 L 37.125 261.53125 Z M 0.746094 68.699219 " clip-rule="nonzero"/></clipPath></defs><g clip-path="url(#a69e685fe1)"><g clip-path="url(#2db1744652)"><g clip-path="url(#b85e539b2e)"><path fill="#00baf3" d="M 199.9375 66.011719 C 203.558594 67.199219 207.980469 67.707031 211.921875 66.960938 C 214.382812 66.496094 216.65625 65.546875 218.433594 63.972656 C 220.226562 62.378906 222.152344 59.554688 223.449219 56.59375 C 224.375 54.480469 225.003906 52.238281 225.316406 49.925781 C 225.5 48.554688 224.539062 47.296875 223.167969 47.113281 C 221.796875 46.925781 220.539062 47.886719 220.351562 49.257812 C 220.105469 51.109375 219.601562 52.902344 218.863281 54.585938 C 217.867188 56.851562 216.363281 59.117188 215.105469 60.226562 C 212.136719 62.867188 206.011719 62.738281 201.503906 61.253906 C 198.171875 60.160156 196.203125 58.503906 195.976562 57.441406 C 195.640625 55.875 198.929688 52.761719 201.832031 50.015625 C 205.207031 46.808594 209.160156 44.273438 213.574219 42.46875 C 214.855469 41.949219 215.46875 40.484375 214.945312 39.207031 C 214.421875 37.925781 212.953125 37.3125 211.679688 37.835938 C 206.691406 39.871094 202.214844 42.75 198.382812 46.382812 C 193.972656 50.5625 190.164062 54.171875 191.074219 58.480469 C 191.746094 61.632812 194.976562 64.375 199.9375 66.011719 Z M 199.9375 66.011719 " fill-opacity="1" fill-rule="nonzero"/></g></g></g><g clip-path="url(#7adbd68c0e)"><g clip-path="url(#4918d250f5)"><g clip-path="url(#69985c244c)"><path fill="#00baf3" d="M 328.171875 88.820312 C 322.992188 76.902344 308.820312 75.066406 304.113281 74.453125 C 299.085938 73.804688 294.21875 74.304688 286.773438 76.21875 C 284.964844 76.683594 283.21875 77.183594 281.519531 77.703125 C 276.382812 76.949219 270.878906 76.222656 264.847656 76.109375 C 257.535156 75.964844 250.171875 76.453125 242.925781 77.492188 C 242.105469 74.527344 241.289062 71.570312 240.46875 68.597656 C 237.753906 58.761719 235.039062 48.917969 232.390625 39.4375 C 230.664062 33.242188 225.667969 28.722656 219.515625 27.902344 C 213.695312 27.175781 209.046875 29.347656 207.300781 30.164062 C 202.851562 32.25 198.714844 34.894531 194.597656 37.777344 C 189.761719 35.480469 174.058594 29.019531 154.984375 31.433594 C 134.816406 33.984375 121.097656 45.664062 114.738281 52.390625 C 111.492188 55.820312 109.976562 60.542969 110.582031 65.335938 L 114.671875 97.949219 C 105.609375 97.167969 96.96875 98.089844 88.960938 100.730469 C 56.230469 111.523438 33.128906 151.203125 30.101562 201.8125 C 29.753906 207.394531 30.710938 212.445312 32.960938 216.832031 C 43.523438 237.4375 79.214844 237.238281 100.539062 237.121094 C 111.964844 237.054688 123.523438 235.925781 135.019531 233.757812 C 138.335938 233.132812 141.648438 232.421875 144.949219 231.621094 C 145.222656 231.5625 145.492188 231.457031 145.742188 231.300781 C 145.742188 231.300781 145.746094 231.300781 145.746094 231.296875 C 145.761719 231.289062 145.777344 231.277344 145.792969 231.265625 L 323.253906 115.394531 C 323.433594 115.277344 323.59375 115.140625 323.738281 114.980469 C 330.226562 107.828125 331.964844 97.5625 328.171875 88.820312 Z M 264.753906 81.113281 C 266.875 81.152344 268.917969 81.296875 270.933594 81.46875 C 263.132812 84.640625 257.457031 87.839844 254.734375 89.492188 C 252.214844 91.019531 249.820312 92.488281 247.488281 93.933594 C 246.421875 90.109375 245.355469 86.261719 244.273438 82.359375 C 251.050781 81.417969 257.921875 80.976562 264.753906 81.113281 Z M 118.382812 55.828125 C 125.585938 48.207031 137.917969 38.652344 155.617188 36.402344 C 165.285156 35.175781 174.539062 36.472656 181.820312 38.4375 C 168.84375 39.402344 151.730469 42.746094 135.457031 52.316406 C 131.417969 54.6875 127.503906 57.386719 123.828125 60.339844 C 123.789062 60.371094 123.769531 60.417969 123.734375 60.449219 C 123.613281 60.558594 123.523438 60.691406 123.421875 60.828125 C 123.320312 60.96875 123.214844 61.097656 123.144531 61.253906 C 123.125 61.296875 123.089844 61.328125 123.070312 61.371094 C 123.03125 61.46875 123.042969 61.574219 123.015625 61.675781 C 122.972656 61.847656 122.929688 62.011719 122.921875 62.191406 C 122.914062 62.351562 122.9375 62.503906 122.960938 62.660156 C 122.984375 62.816406 123.011719 62.96875 123.0625 63.121094 C 123.121094 63.289062 123.210938 63.433594 123.304688 63.585938 C 123.359375 63.675781 123.378906 63.777344 123.445312 63.859375 C 123.476562 63.898438 123.519531 63.910156 123.550781 63.945312 C 123.667969 64.074219 123.804688 64.171875 123.949219 64.277344 C 124.082031 64.375 124.203125 64.472656 124.351562 64.539062 C 124.398438 64.5625 124.425781 64.601562 124.472656 64.617188 C 130.539062 67.023438 134.847656 67.636719 138.597656 67.941406 C 143.011719 68.296875 152.207031 68.152344 164.164062 63.152344 C 174.261719 58.925781 182.425781 52.886719 190.316406 47.046875 C 196.753906 42.285156 202.835938 37.789062 209.433594 34.699219 C 211.796875 33.589844 215.011719 32.382812 219.011719 32.882812 C 222.96875 33.410156 226.410156 36.585938 227.582031 40.78125 C 230.226562 50.257812 232.9375 60.09375 235.652344 69.925781 C 238.144531 78.957031 240.625 87.957031 243.066406 96.699219 C 219.179688 111.792969 205.332031 123.246094 193.414062 141.453125 C 192.859375 142.300781 192.359375 143.109375 191.855469 143.925781 C 180.460938 146.273438 168.902344 146.550781 157.421875 144.769531 C 145.683594 142.945312 134.5 139.027344 124.148438 133.152344 L 115.5625 64.710938 C 115.140625 61.40625 116.167969 58.171875 118.382812 55.828125 Z M 187.136719 43.167969 C 179.546875 48.785156 171.683594 54.574219 162.222656 58.53125 C 151.253906 63.125 142.960938 63.273438 138.996094 62.949219 C 136.738281 62.769531 134.113281 62.464844 130.683594 61.46875 C 133.0625 59.746094 135.484375 58.101562 137.992188 56.628906 C 155.640625 46.257812 174.375 43.574219 187.136719 43.167969 Z M 185.121094 156.546875 C 174.085938 159.433594 162.78125 159.703125 151.492188 157.304688 C 143.511719 155.605469 135.882812 152.59375 128.8125 148.351562 C 126.914062 147.214844 125.664062 145.285156 125.382812 143.054688 L 124.910156 139.269531 C 134.875 144.46875 145.523438 147.984375 156.648438 149.714844 C 167.277344 151.363281 177.984375 151.3125 188.546875 149.613281 C 187.242188 152.035156 186.117188 154.328125 185.121094 156.546875 Z M 143.054688 226.929688 C 128.925781 230.289062 114.609375 232.035156 100.507812 232.113281 C 80.335938 232.226562 46.574219 232.414062 37.414062 214.546875 C 35.585938 210.972656 34.804688 206.796875 35.097656 202.121094 C 38 153.5625 59.761719 115.628906 90.53125 105.488281 C 98.203125 102.960938 106.542969 102.152344 115.316406 103.046875 L 119.109375 133.296875 C 104.894531 140.421875 91.566406 149.277344 79.492188 159.664062 C 66.519531 170.824219 55.039062 183.679688 45.375 197.882812 C 44.597656 199.023438 44.890625 200.582031 46.035156 201.359375 C 46.605469 201.746094 47.277344 201.867188 47.90625 201.75 C 48.539062 201.628906 49.125 201.269531 49.511719 200.695312 C 58.933594 186.863281 70.117188 174.332031 82.753906 163.457031 C 94.070312 153.722656 106.515625 145.375 119.769531 138.574219 L 120.410156 143.679688 C 120.882812 147.445312 123.003906 150.710938 126.226562 152.644531 C 133.773438 157.171875 141.921875 160.386719 150.445312 162.199219 C 160.703125 164.382812 170.976562 164.515625 181.070312 162.613281 C 181.609375 162.511719 182.144531 162.386719 182.675781 162.273438 C 182.261719 163.296875 181.847656 164.320312 181.4375 165.351562 C 178.097656 173.699219 174.308594 183.160156 164.757812 198.019531 C 158.253906 208.140625 150.953125 217.867188 143.054688 226.929688 Z M 320.234375 111.386719 L 156.683594 218.175781 C 161.023438 212.53125 165.132812 206.695312 168.96875 200.726562 C 178.777344 185.464844 182.664062 175.769531 186.085938 167.214844 C 189.089844 159.710938 191.679688 153.234375 197.597656 144.195312 C 210.800781 124.019531 226.695312 112.332031 257.324219 93.769531 C 261.464844 91.261719 272.734375 85.003906 288.019531 81.066406 C 289.964844 80.566406 291.664062 80.179688 293.179688 79.894531 C 297.78125 79.027344 300.683594 79.058594 303.515625 79.425781 C 307.476562 79.941406 319.527344 81.5 323.574219 90.816406 C 326.550781 97.660156 325.234375 105.699219 320.234375 111.386719 Z M 320.234375 111.386719 " fill-opacity="1" fill-rule="nonzero"/></g></g></g><g clip-path="url(#c8c03e8926)"><g clip-path="url(#bf90c8d567)"><g clip-path="url(#296f7b320c)"><path fill="#c5fa91" d="M 200.070312 75.285156 C 203.691406 76.472656 208.113281 76.980469 212.054688 76.238281 C 214.515625 75.773438 216.792969 74.820312 218.566406 73.246094 C 220.363281 71.652344 222.285156 68.828125 223.582031 65.871094 C 224.511719 63.757812 225.136719 61.511719 225.449219 59.199219 C 225.632812 57.832031 224.671875 56.570312 223.300781 56.386719 C 221.929688 56.203125 220.671875 57.164062 220.484375 58.53125 C 220.238281 60.382812 219.734375 62.175781 218.996094 63.859375 C 218 66.125 216.496094 68.390625 215.238281 69.503906 C 212.269531 72.140625 206.144531 72.011719 201.636719 70.53125 C 198.308594 69.433594 196.335938 67.78125 196.109375 66.71875 C 195.777344 65.152344 199.0625 62.035156 201.964844 59.289062 C 205.34375 56.082031 209.292969 53.546875 213.707031 51.746094 C 214.988281 51.222656 215.601562 49.757812 215.078125 48.480469 C 214.554688 47.203125 213.089844 46.589844 211.8125 47.109375 C 206.824219 49.144531 202.347656 52.023438 198.515625 55.65625 C 194.105469 59.835938 190.296875 63.449219 191.207031 67.757812 C 191.882812 70.910156 195.109375 73.652344 200.070312 75.285156 Z M 200.070312 75.285156 " fill-opacity="1" fill-rule="nonzero"/></g></g></g><g clip-path="url(#a957fcdfc3)"><g clip-path="url(#4851d30de2)"><g clip-path="url(#d1fe264dd1)"><path fill="#c5fa91" d="M 328.304688 98.09375 C 323.125 86.175781 308.953125 84.339844 304.246094 83.730469 C 299.21875 83.078125 294.355469 83.578125 286.90625 85.492188 C 285.097656 85.957031 283.351562 86.457031 281.65625 86.976562 C 276.515625 86.226562 271.011719 85.5 264.980469 85.382812 C 257.667969 85.238281 250.308594 85.726562 243.058594 86.765625 C 242.238281 83.800781 241.425781 80.847656 240.601562 77.871094 C 237.890625 68.035156 235.171875 58.195312 232.527344 48.710938 C 230.796875 42.515625 225.800781 37.996094 219.648438 37.175781 C 213.828125 36.449219 209.183594 38.621094 207.433594 39.4375 C 202.984375 41.523438 198.847656 44.171875 194.730469 47.050781 C 189.894531 44.757812 174.191406 38.292969 155.117188 40.710938 C 134.953125 43.261719 121.230469 54.9375 114.871094 61.664062 C 111.628906 65.097656 110.109375 69.816406 110.714844 74.609375 L 114.804688 107.222656 C 105.742188 106.441406 97.101562 107.363281 89.09375 110.003906 C 56.367188 120.796875 33.261719 160.476562 30.238281 211.089844 C 29.886719 216.667969 30.847656 221.71875 33.09375 226.105469 C 43.65625 246.710938 79.347656 246.511719 100.671875 246.394531 C 112.097656 246.332031 123.65625 245.203125 135.152344 243.03125 C 138.46875 242.40625 141.785156 241.695312 145.082031 240.898438 C 145.355469 240.839844 145.625 240.730469 145.875 240.574219 C 145.878906 240.574219 145.878906 240.574219 145.878906 240.570312 C 145.894531 240.5625 145.910156 240.550781 145.925781 240.542969 L 323.386719 124.671875 C 323.566406 124.550781 323.726562 124.414062 323.875 124.253906 C 330.359375 117.105469 332.097656 106.835938 328.304688 98.09375 Z M 264.890625 90.386719 C 267.007812 90.429688 269.054688 90.570312 271.066406 90.742188 C 263.265625 93.914062 257.589844 97.113281 254.867188 98.765625 C 252.347656 100.292969 249.953125 101.761719 247.621094 103.210938 C 246.554688 99.382812 245.488281 95.539062 244.40625 91.632812 C 251.183594 90.695312 258.054688 90.253906 264.890625 90.386719 Z M 118.515625 65.101562 C 125.71875 57.480469 138.054688 47.925781 155.75 45.675781 C 165.417969 44.449219 174.671875 45.75 181.957031 47.710938 C 168.976562 48.675781 151.863281 52.019531 135.589844 61.589844 C 131.550781 63.960938 127.636719 66.660156 123.960938 69.617188 C 123.921875 69.644531 123.90625 69.691406 123.871094 69.726562 C 123.746094 69.835938 123.65625 69.964844 123.554688 70.101562 C 123.453125 70.242188 123.351562 70.375 123.28125 70.527344 C 123.261719 70.574219 123.222656 70.601562 123.207031 70.644531 C 123.164062 70.746094 123.175781 70.847656 123.152344 70.949219 C 123.105469 71.121094 123.0625 71.289062 123.058594 71.464844 C 123.050781 71.628906 123.074219 71.777344 123.097656 71.933594 C 123.117188 72.09375 123.144531 72.242188 123.195312 72.394531 C 123.257812 72.5625 123.34375 72.710938 123.4375 72.859375 C 123.492188 72.949219 123.511719 73.054688 123.582031 73.132812 C 123.609375 73.171875 123.652344 73.1875 123.6875 73.222656 C 123.800781 73.347656 123.941406 73.445312 124.082031 73.550781 C 124.214844 73.648438 124.339844 73.746094 124.484375 73.8125 C 124.53125 73.835938 124.5625 73.875 124.609375 73.894531 C 130.675781 76.300781 134.980469 76.910156 138.730469 77.214844 C 143.148438 77.570312 152.339844 77.429688 164.296875 72.425781 C 174.398438 68.199219 182.558594 62.164062 190.453125 56.324219 C 196.890625 51.558594 202.972656 47.0625 209.566406 43.972656 C 211.933594 42.863281 215.144531 41.65625 219.144531 42.15625 C 223.101562 42.683594 226.542969 45.859375 227.714844 50.054688 C 230.359375 59.53125 233.074219 69.371094 235.785156 79.203125 C 238.277344 88.230469 240.761719 97.230469 243.199219 105.972656 C 219.3125 121.066406 205.464844 132.519531 193.546875 150.726562 C 192.992188 151.574219 192.492188 152.386719 191.988281 153.199219 C 180.59375 155.546875 169.035156 155.824219 157.554688 154.042969 C 145.816406 152.21875 134.636719 148.300781 124.28125 142.425781 L 115.695312 73.988281 C 115.273438 70.683594 116.304688 67.445312 118.515625 65.101562 Z M 187.273438 52.441406 C 179.679688 58.058594 171.816406 63.851562 162.359375 67.808594 C 151.386719 72.398438 143.09375 72.546875 139.128906 72.226562 C 136.871094 72.042969 134.246094 71.742188 130.820312 70.742188 C 133.195312 69.023438 135.617188 67.375 138.125 65.902344 C 155.773438 55.53125 174.507812 52.847656 187.273438 52.441406 Z M 185.253906 165.820312 C 174.21875 168.707031 162.917969 168.980469 151.625 166.578125 C 143.644531 164.878906 136.015625 161.867188 128.945312 157.628906 C 127.046875 156.488281 125.796875 154.558594 125.515625 152.332031 L 125.042969 148.542969 C 135.007812 153.742188 145.660156 157.261719 156.78125 158.988281 C 167.410156 160.636719 178.117188 160.585938 188.679688 158.890625 C 187.375 161.308594 186.253906 163.601562 185.253906 165.820312 Z M 143.1875 236.203125 C 129.058594 239.566406 114.742188 241.3125 100.640625 241.386719 C 80.46875 241.5 46.707031 241.6875 37.546875 223.820312 C 35.71875 220.25 34.941406 216.070312 35.234375 211.394531 C 38.136719 162.835938 59.894531 124.90625 90.664062 114.761719 C 98.335938 112.234375 106.675781 111.429688 115.449219 112.320312 L 119.242188 142.570312 C 105.027344 149.695312 91.699219 158.550781 79.625 168.9375 C 66.652344 180.097656 55.171875 192.957031 45.507812 207.15625 C 44.730469 208.296875 45.023438 209.855469 46.167969 210.632812 C 46.738281 211.023438 47.410156 211.140625 48.042969 211.023438 C 48.675781 210.902344 49.257812 210.542969 49.648438 209.972656 C 59.066406 196.136719 70.25 183.605469 82.886719 172.730469 C 94.207031 162.996094 106.648438 154.648438 119.90625 147.847656 L 120.542969 152.957031 C 121.015625 156.71875 123.136719 159.984375 126.359375 161.921875 C 133.90625 166.445312 142.054688 169.660156 150.578125 171.476562 C 160.839844 173.65625 171.113281 173.789062 181.207031 171.886719 C 181.742188 171.785156 182.277344 171.660156 182.8125 171.546875 C 182.394531 172.570312 181.980469 173.59375 181.570312 174.628906 C 178.230469 182.972656 174.441406 192.433594 164.890625 207.292969 C 158.386719 217.417969 151.085938 227.140625 143.1875 236.203125 Z M 320.367188 120.660156 L 156.820312 227.449219 C 161.15625 221.804688 165.265625 215.972656 169.105469 210 C 178.910156 194.738281 182.796875 185.042969 186.21875 176.488281 C 189.222656 168.984375 191.8125 162.507812 197.730469 153.472656 C 210.9375 133.292969 226.828125 121.609375 257.460938 103.046875 C 261.597656 100.539062 272.867188 94.277344 288.15625 90.339844 C 290.097656 89.839844 291.796875 89.457031 293.3125 89.167969 C 297.914062 88.300781 300.816406 88.332031 303.648438 88.703125 C 307.613281 89.214844 319.660156 90.773438 323.707031 100.089844 C 326.683594 106.9375 325.367188 114.972656 320.367188 120.660156 Z M 320.367188 120.660156 " fill-opacity="1" fill-rule="nonzero"/></g></g></g></svg>