<svg xmlns="http://www.w3.org/2000/svg" xmlns:xlink="http://www.w3.org/1999/xlink" width="203" zoomAndPan="magnify" viewBox="0 0 152.25 147.000002" height="196" preserveAspectRatio="xMidYMid meet" version="1.0"><defs><clipPath id="444ea0c5d0"><path d="M 32 70 L 75 70 L 75 116 L 32 116 Z M 32 70 " clip-rule="nonzero"/></clipPath><clipPath id="193d7d64a0"><path d="M 9.191406 79.484375 L 96.25 11.761719 L 143.789062 72.871094 L 56.726562 140.59375 Z M 9.191406 79.484375 " clip-rule="nonzero"/></clipPath><clipPath id="0e9023d455"><path d="M 9.191406 79.484375 L 96.25 11.761719 L 143.789062 72.871094 L 56.726562 140.59375 Z M 9.191406 79.484375 " clip-rule="nonzero"/></clipPath><clipPath id="1df511fc16"><path d="M 79 37 L 121 37 L 121 83 L 79 83 Z M 79 37 " clip-rule="nonzero"/></clipPath><clipPath id="606e01b52c"><path d="M 9.191406 79.484375 L 96.25 11.761719 L 143.789062 72.871094 L 56.726562 140.59375 Z M 9.191406 79.484375 " clip-rule="nonzero"/></clipPath><clipPath id="5c943b68f8"><path d="M 9.191406 79.484375 L 96.25 11.761719 L 143.789062 72.871094 L 56.726562 140.59375 Z M 9.191406 79.484375 " clip-rule="nonzero"/></clipPath><clipPath id="317600a6b3"><path d="M 59 38 L 94 38 L 94 115 L 59 115 Z M 59 38 " clip-rule="nonzero"/></clipPath><clipPath id="a9e4ca3eff"><path d="M 9.191406 79.484375 L 96.25 11.761719 L 143.789062 72.871094 L 56.726562 140.59375 Z M 9.191406 79.484375 " clip-rule="nonzero"/></clipPath><clipPath id="cfe316fbdc"><path d="M 9.191406 79.484375 L 96.25 11.761719 L 143.789062 72.871094 L 56.726562 140.59375 Z M 9.191406 79.484375 " clip-rule="nonzero"/></clipPath><clipPath id="05ecd94c50"><path d="M 31 64 L 74 64 L 74 110 L 31 110 Z M 31 64 " clip-rule="nonzero"/></clipPath><clipPath id="64b91887e9"><path d="M 8.273438 73.058594 L 95.335938 5.335938 L 142.871094 66.445312 L 55.8125 134.171875 Z M 8.273438 73.058594 " clip-rule="nonzero"/></clipPath><clipPath id="10df538017"><path d="M 8.273438 73.058594 L 95.335938 5.335938 L 142.871094 66.445312 L 55.8125 134.171875 Z M 8.273438 73.058594 " clip-rule="nonzero"/></clipPath><clipPath id="124400c5f0"><path d="M 78 30 L 120 30 L 120 77 L 78 77 Z M 78 30 " clip-rule="nonzero"/></clipPath><clipPath id="abf8bb23bd"><path d="M 8.273438 73.058594 L 95.335938 5.335938 L 142.871094 66.445312 L 55.8125 134.171875 Z M 8.273438 73.058594 " clip-rule="nonzero"/></clipPath><clipPath id="79f8ad9e71"><path d="M 8.273438 73.058594 L 95.335938 5.335938 L 142.871094 66.445312 L 55.8125 134.171875 Z M 8.273438 73.058594 " clip-rule="nonzero"/></clipPath><clipPath id="79409c61e6"><path d="M 58 31 L 93 31 L 93 108 L 58 108 Z M 58 31 " clip-rule="nonzero"/></clipPath><clipPath id="e5c3d0e7c9"><path d="M 8.273438 73.058594 L 95.335938 5.335938 L 142.871094 66.445312 L 55.8125 134.171875 Z M 8.273438 73.058594 " clip-rule="nonzero"/></clipPath><clipPath id="595df80f3e"><path d="M 8.273438 73.058594 L 95.335938 5.335938 L 142.871094 66.445312 L 55.8125 134.171875 Z M 8.273438 73.058594 " clip-rule="nonzero"/></clipPath></defs><g clip-path="url(#444ea0c5d0)"><g clip-path="url(#193d7d64a0)"><g clip-path="url(#0e9023d455)"><path fill="#00baf3" d="M 72.105469 114.816406 C 70.816406 115.820312 69.625 116.054688 68.097656 115.863281 L 37.539062 112.003906 C 34.484375 111.617188 32.476562 109.035156 32.855469 105.976562 L 36.628906 75.410156 C 37.007812 72.351562 39.582031 70.351562 42.636719 70.734375 C 45.691406 71.121094 47.703125 73.703125 47.324219 76.761719 L 44.210938 101.980469 L 69.417969 105.164062 C 72.472656 105.550781 74.484375 108.132812 74.105469 111.1875 C 73.917969 112.71875 73.394531 113.816406 72.105469 114.816406 Z M 72.105469 114.816406 " fill-opacity="1" fill-rule="nonzero"/></g></g></g><g clip-path="url(#1df511fc16)"><g clip-path="url(#606e01b52c)"><g clip-path="url(#5c943b68f8)"><path fill="#00baf3" d="M 115.019531 81.433594 C 113.734375 82.4375 112.539062 82.671875 111.011719 82.480469 C 107.957031 82.09375 105.949219 79.511719 106.324219 76.457031 L 109.441406 51.238281 L 84.230469 48.050781 C 81.175781 47.664062 79.167969 45.082031 79.542969 42.027344 C 79.921875 38.96875 82.496094 36.96875 85.550781 37.351562 L 116.109375 41.214844 C 119.164062 41.601562 121.171875 44.183594 120.796875 47.238281 L 117.019531 77.804688 C 116.832031 79.335938 116.308594 80.433594 115.019531 81.433594 Z M 115.019531 81.433594 " fill-opacity="1" fill-rule="nonzero"/></g></g></g><g clip-path="url(#317600a6b3)"><g clip-path="url(#a9e4ca3eff)"><g clip-path="url(#cfe316fbdc)"><path fill="#00baf3" d="M 91.675781 113.410156 C 91.246094 113.742188 90.816406 114.078125 90.054688 113.980469 C 87.238281 114.789062 84.277344 113.636719 83.125 110.390625 L 60.121094 45.394531 C 59.304688 42.574219 60.445312 39.613281 63.691406 38.472656 C 66.503906 37.664062 69.46875 38.8125 70.617188 42.0625 L 93.625 107.058594 C 94.105469 109.449219 93.390625 112.074219 91.675781 113.410156 Z M 91.675781 113.410156 " fill-opacity="1" fill-rule="nonzero"/></g></g></g><g clip-path="url(#05ecd94c50)"><g clip-path="url(#64b91887e9)"><g clip-path="url(#10df538017)"><path fill="#c5fa91" d="M 71.191406 108.394531 C 69.902344 109.394531 68.710938 109.632812 67.179688 109.4375 L 36.625 105.578125 C 33.570312 105.191406 31.5625 102.609375 31.9375 99.554688 L 35.714844 68.984375 C 36.089844 65.929688 38.664062 63.925781 41.722656 64.3125 C 44.777344 64.699219 46.785156 67.28125 46.40625 70.335938 L 43.292969 95.554688 L 68.503906 98.738281 C 71.558594 99.125 73.566406 101.707031 73.191406 104.765625 C 73 106.292969 72.476562 107.390625 71.191406 108.394531 Z M 71.191406 108.394531 " fill-opacity="1" fill-rule="nonzero"/></g></g></g><g clip-path="url(#124400c5f0)"><g clip-path="url(#abf8bb23bd)"><g clip-path="url(#79f8ad9e71)"><path fill="#c5fa91" d="M 114.105469 75.011719 C 112.816406 76.011719 111.625 76.25 110.097656 76.054688 C 107.039062 75.667969 105.03125 73.085938 105.410156 70.03125 L 108.523438 44.8125 L 83.316406 41.628906 C 80.257812 41.242188 78.25 38.660156 78.628906 35.601562 C 79.003906 32.546875 81.582031 30.542969 84.636719 30.929688 L 115.191406 34.789062 C 118.246094 35.175781 120.257812 37.757812 119.878906 40.816406 L 116.105469 71.382812 C 115.914062 72.910156 115.390625 74.007812 114.105469 75.011719 Z M 114.105469 75.011719 " fill-opacity="1" fill-rule="nonzero"/></g></g></g><g clip-path="url(#79409c61e6)"><g clip-path="url(#e5c3d0e7c9)"><g clip-path="url(#595df80f3e)"><path fill="#c5fa91" d="M 90.757812 106.984375 C 90.332031 107.320312 89.902344 107.652344 89.136719 107.554688 C 86.320312 108.363281 83.359375 107.214844 82.210938 103.964844 L 59.203125 38.96875 C 58.386719 36.148438 59.53125 33.191406 62.773438 32.046875 C 65.589844 31.238281 68.550781 32.390625 69.703125 35.640625 L 92.707031 100.632812 C 93.1875 103.023438 92.476562 105.648438 90.757812 106.984375 Z M 90.757812 106.984375 " fill-opacity="1" fill-rule="nonzero"/></g></g></g></svg>