<svg xmlns="http://www.w3.org/2000/svg" xmlns:xlink="http://www.w3.org/1999/xlink" width="126" zoomAndPan="magnify" viewBox="0 0 94.5 94.499998" height="126" preserveAspectRatio="xMidYMid meet" version="1.0"><defs><clipPath id="c834dc1a26"><path d="M 0.046875 0.488281 L 93.980469 0.488281 L 93.980469 94.003906 L 0.046875 94.003906 Z M 0.046875 0.488281 " clip-rule="nonzero"/></clipPath><clipPath id="f9006ecd44"><path d="M 28.546875 0.488281 L 65.480469 0.488281 C 81.21875 0.488281 93.980469 13.25 93.980469 28.988281 L 93.980469 65.921875 C 93.980469 81.664062 81.21875 94.421875 65.480469 94.421875 L 28.546875 94.421875 C 12.804688 94.421875 0.046875 81.664062 0.046875 65.921875 L 0.046875 28.988281 C 0.046875 13.25 12.804688 0.488281 28.546875 0.488281 " clip-rule="nonzero"/></clipPath><linearGradient x1="0.00000000228744" gradientTransform="matrix(0.366926, 0, 0, 0.366926, 0.0467036, 0.489924)" y1="0" x2="255.999999" gradientUnits="userSpaceOnUse" y2="0" id="cbe4674770"><stop stop-opacity="1" stop-color="rgb(100%, 87.098694%, 34.899902%)" offset="0"/><stop stop-opacity="1" stop-color="rgb(100%, 86.981201%, 34.881592%)" offset="0.0078125"/><stop stop-opacity="1" stop-color="rgb(100%, 86.74469%, 34.843445%)" offset="0.015625"/><stop stop-opacity="1" stop-color="rgb(100%, 86.508179%, 34.806824%)" offset="0.0234375"/><stop stop-opacity="1" stop-color="rgb(100%, 86.273193%, 34.770203%)" offset="0.03125"/><stop stop-opacity="1" stop-color="rgb(100%, 86.036682%, 34.733582%)" offset="0.0390625"/><stop stop-opacity="1" stop-color="rgb(100%, 85.801697%, 34.69696%)" offset="0.046875"/><stop stop-opacity="1" stop-color="rgb(100%, 85.565186%, 34.660339%)" offset="0.0546875"/><stop stop-opacity="1" stop-color="rgb(100%, 85.328674%, 34.623718%)" offset="0.0625"/><stop stop-opacity="1" stop-color="rgb(100%, 85.093689%, 34.587097%)" offset="0.0703125"/><stop stop-opacity="1" stop-color="rgb(100%, 84.857178%, 34.550476%)" offset="0.078125"/><stop stop-opacity="1" stop-color="rgb(100%, 84.620667%, 34.513855%)" offset="0.0859375"/><stop stop-opacity="1" stop-color="rgb(100%, 84.385681%, 34.477234%)" offset="0.09375"/><stop stop-opacity="1" stop-color="rgb(100%, 84.14917%, 34.440613%)" offset="0.101562"/><stop stop-opacity="1" stop-color="rgb(100%, 83.914185%, 34.403992%)" offset="0.109375"/><stop stop-opacity="1" stop-color="rgb(100%, 83.677673%, 34.367371%)" offset="0.117187"/><stop stop-opacity="1" stop-color="rgb(100%, 83.441162%, 34.33075%)" offset="0.125"/><stop stop-opacity="1" stop-color="rgb(100%, 83.206177%, 34.292603%)" offset="0.132812"/><stop stop-opacity="1" stop-color="rgb(100%, 82.969666%, 34.255981%)" offset="0.140625"/><stop stop-opacity="1" stop-color="rgb(100%, 82.73468%, 34.21936%)" offset="0.148438"/><stop stop-opacity="1" stop-color="rgb(100%, 82.498169%, 34.182739%)" offset="0.15625"/><stop stop-opacity="1" stop-color="rgb(100%, 82.261658%, 34.146118%)" offset="0.164062"/><stop stop-opacity="1" stop-color="rgb(100%, 82.026672%, 34.109497%)" offset="0.171875"/><stop stop-opacity="1" stop-color="rgb(100%, 81.790161%, 34.072876%)" offset="0.179687"/><stop stop-opacity="1" stop-color="rgb(100%, 81.55365%, 34.036255%)" offset="0.1875"/><stop stop-opacity="1" stop-color="rgb(100%, 81.318665%, 33.999634%)" offset="0.195313"/><stop stop-opacity="1" stop-color="rgb(100%, 81.082153%, 33.963013%)" offset="0.203125"/><stop stop-opacity="1" stop-color="rgb(100%, 80.847168%, 33.926392%)" offset="0.210938"/><stop stop-opacity="1" stop-color="rgb(100%, 80.610657%, 33.889771%)" offset="0.21875"/><stop stop-opacity="1" stop-color="rgb(100%, 80.374146%, 33.853149%)" offset="0.226562"/><stop stop-opacity="1" stop-color="rgb(100%, 80.13916%, 33.816528%)" offset="0.234375"/><stop stop-opacity="1" stop-color="rgb(100%, 79.902649%, 33.779907%)" offset="0.242188"/><stop stop-opacity="1" stop-color="rgb(100%, 79.666138%, 33.743286%)" offset="0.25"/><stop stop-opacity="1" stop-color="rgb(100%, 79.431152%, 33.705139%)" offset="0.257812"/><stop stop-opacity="1" stop-color="rgb(100%, 79.194641%, 33.668518%)" offset="0.265625"/><stop stop-opacity="1" stop-color="rgb(100%, 78.959656%, 33.631897%)" offset="0.273437"/><stop stop-opacity="1" stop-color="rgb(100%, 78.723145%, 33.595276%)" offset="0.28125"/><stop stop-opacity="1" stop-color="rgb(100%, 78.486633%, 33.558655%)" offset="0.289063"/><stop stop-opacity="1" stop-color="rgb(100%, 78.251648%, 33.522034%)" offset="0.296875"/><stop stop-opacity="1" stop-color="rgb(100%, 78.015137%, 33.485413%)" offset="0.304688"/><stop stop-opacity="1" stop-color="rgb(100%, 77.778625%, 33.448792%)" offset="0.3125"/><stop stop-opacity="1" stop-color="rgb(100%, 77.54364%, 33.41217%)" offset="0.320312"/><stop stop-opacity="1" stop-color="rgb(100%, 77.307129%, 33.375549%)" offset="0.328125"/><stop stop-opacity="1" stop-color="rgb(100%, 77.072144%, 33.338928%)" offset="0.335938"/><stop stop-opacity="1" stop-color="rgb(100%, 76.835632%, 33.302307%)" offset="0.34375"/><stop stop-opacity="1" stop-color="rgb(100%, 76.599121%, 33.265686%)" offset="0.351562"/><stop stop-opacity="1" stop-color="rgb(100%, 76.364136%, 33.229065%)" offset="0.359375"/><stop stop-opacity="1" stop-color="rgb(100%, 76.127625%, 33.192444%)" offset="0.367187"/><stop stop-opacity="1" stop-color="rgb(100%, 75.891113%, 33.154297%)" offset="0.375"/><stop stop-opacity="1" stop-color="rgb(100%, 75.656128%, 33.117676%)" offset="0.382813"/><stop stop-opacity="1" stop-color="rgb(100%, 75.419617%, 33.081055%)" offset="0.390625"/><stop stop-opacity="1" stop-color="rgb(100%, 75.184631%, 33.044434%)" offset="0.398438"/><stop stop-opacity="1" stop-color="rgb(100%, 74.94812%, 33.007812%)" offset="0.40625"/><stop stop-opacity="1" stop-color="rgb(100%, 74.711609%, 32.971191%)" offset="0.414062"/><stop stop-opacity="1" stop-color="rgb(100%, 74.476624%, 32.93457%)" offset="0.421875"/><stop stop-opacity="1" stop-color="rgb(100%, 74.240112%, 32.897949%)" offset="0.429688"/><stop stop-opacity="1" stop-color="rgb(100%, 74.003601%, 32.861328%)" offset="0.4375"/><stop stop-opacity="1" stop-color="rgb(100%, 73.768616%, 32.824707%)" offset="0.445312"/><stop stop-opacity="1" stop-color="rgb(100%, 73.532104%, 32.788086%)" offset="0.453125"/><stop stop-opacity="1" stop-color="rgb(100%, 73.297119%, 32.751465%)" offset="0.460937"/><stop stop-opacity="1" stop-color="rgb(100%, 73.060608%, 32.714844%)" offset="0.46875"/><stop stop-opacity="1" stop-color="rgb(100%, 72.824097%, 32.678223%)" offset="0.476563"/><stop stop-opacity="1" stop-color="rgb(100%, 72.589111%, 32.641602%)" offset="0.484375"/><stop stop-opacity="1" stop-color="rgb(100%, 72.3526%, 32.60498%)" offset="0.492188"/><stop stop-opacity="1" stop-color="rgb(100%, 72.116089%, 32.566833%)" offset="0.5"/><stop stop-opacity="1" stop-color="rgb(100%, 71.881104%, 32.530212%)" offset="0.507812"/><stop stop-opacity="1" stop-color="rgb(100%, 71.644592%, 32.493591%)" offset="0.515625"/><stop stop-opacity="1" stop-color="rgb(100%, 71.409607%, 32.45697%)" offset="0.523438"/><stop stop-opacity="1" stop-color="rgb(100%, 71.173096%, 32.420349%)" offset="0.53125"/><stop stop-opacity="1" stop-color="rgb(100%, 70.936584%, 32.383728%)" offset="0.539062"/><stop stop-opacity="1" stop-color="rgb(100%, 70.701599%, 32.347107%)" offset="0.546875"/><stop stop-opacity="1" stop-color="rgb(100%, 70.465088%, 32.310486%)" offset="0.554688"/><stop stop-opacity="1" stop-color="rgb(100%, 70.228577%, 32.273865%)" offset="0.5625"/><stop stop-opacity="1" stop-color="rgb(100%, 69.993591%, 32.237244%)" offset="0.570312"/><stop stop-opacity="1" stop-color="rgb(100%, 69.75708%, 32.200623%)" offset="0.578125"/><stop stop-opacity="1" stop-color="rgb(100%, 69.522095%, 32.164001%)" offset="0.585938"/><stop stop-opacity="1" stop-color="rgb(100%, 69.285583%, 32.12738%)" offset="0.59375"/><stop stop-opacity="1" stop-color="rgb(100%, 69.049072%, 32.090759%)" offset="0.601563"/><stop stop-opacity="1" stop-color="rgb(100%, 68.814087%, 32.054138%)" offset="0.609375"/><stop stop-opacity="1" stop-color="rgb(100%, 68.577576%, 32.017517%)" offset="0.617188"/><stop stop-opacity="1" stop-color="rgb(100%, 68.341064%, 31.97937%)" offset="0.625"/><stop stop-opacity="1" stop-color="rgb(100%, 68.106079%, 31.942749%)" offset="0.632812"/><stop stop-opacity="1" stop-color="rgb(100%, 67.869568%, 31.906128%)" offset="0.640625"/><stop stop-opacity="1" stop-color="rgb(100%, 67.634583%, 31.869507%)" offset="0.648438"/><stop stop-opacity="1" stop-color="rgb(100%, 67.398071%, 31.832886%)" offset="0.65625"/><stop stop-opacity="1" stop-color="rgb(100%, 67.16156%, 31.796265%)" offset="0.664062"/><stop stop-opacity="1" stop-color="rgb(100%, 66.926575%, 31.759644%)" offset="0.671875"/><stop stop-opacity="1" stop-color="rgb(100%, 66.690063%, 31.723022%)" offset="0.679688"/><stop stop-opacity="1" stop-color="rgb(100%, 66.453552%, 31.686401%)" offset="0.6875"/><stop stop-opacity="1" stop-color="rgb(100%, 66.218567%, 31.64978%)" offset="0.695312"/><stop stop-opacity="1" stop-color="rgb(100%, 65.982056%, 31.613159%)" offset="0.703125"/><stop stop-opacity="1" stop-color="rgb(100%, 65.74707%, 31.576538%)" offset="0.710937"/><stop stop-opacity="1" stop-color="rgb(100%, 65.510559%, 31.539917%)" offset="0.71875"/><stop stop-opacity="1" stop-color="rgb(100%, 65.274048%, 31.503296%)" offset="0.726562"/><stop stop-opacity="1" stop-color="rgb(100%, 65.039062%, 31.466675%)" offset="0.734375"/><stop stop-opacity="1" stop-color="rgb(100%, 64.802551%, 31.428528%)" offset="0.742188"/><stop stop-opacity="1" stop-color="rgb(100%, 64.56604%, 31.391907%)" offset="0.75"/><stop stop-opacity="1" stop-color="rgb(100%, 64.331055%, 31.355286%)" offset="0.757812"/><stop stop-opacity="1" stop-color="rgb(100%, 64.094543%, 31.318665%)" offset="0.765625"/><stop stop-opacity="1" stop-color="rgb(100%, 63.859558%, 31.282043%)" offset="0.773438"/><stop stop-opacity="1" stop-color="rgb(100%, 63.623047%, 31.245422%)" offset="0.78125"/><stop stop-opacity="1" stop-color="rgb(100%, 63.386536%, 31.208801%)" offset="0.789063"/><stop stop-opacity="1" stop-color="rgb(100%, 63.15155%, 31.17218%)" offset="0.796875"/><stop stop-opacity="1" stop-color="rgb(100%, 62.915039%, 31.135559%)" offset="0.804688"/><stop stop-opacity="1" stop-color="rgb(100%, 62.678528%, 31.098938%)" offset="0.8125"/><stop stop-opacity="1" stop-color="rgb(100%, 62.443542%, 31.062317%)" offset="0.820312"/><stop stop-opacity="1" stop-color="rgb(100%, 62.207031%, 31.025696%)" offset="0.828125"/><stop stop-opacity="1" stop-color="rgb(100%, 61.972046%, 30.989075%)" offset="0.835938"/><stop stop-opacity="1" stop-color="rgb(100%, 61.735535%, 30.952454%)" offset="0.84375"/><stop stop-opacity="1" stop-color="rgb(100%, 61.499023%, 30.915833%)" offset="0.851562"/><stop stop-opacity="1" stop-color="rgb(100%, 61.264038%, 30.879211%)" offset="0.859375"/><stop stop-opacity="1" stop-color="rgb(100%, 61.027527%, 30.841064%)" offset="0.867188"/><stop stop-opacity="1" stop-color="rgb(100%, 60.791016%, 30.804443%)" offset="0.875"/><stop stop-opacity="1" stop-color="rgb(100%, 60.55603%, 30.767822%)" offset="0.882812"/><stop stop-opacity="1" stop-color="rgb(100%, 60.319519%, 30.731201%)" offset="0.890625"/><stop stop-opacity="1" stop-color="rgb(100%, 60.084534%, 30.69458%)" offset="0.898437"/><stop stop-opacity="1" stop-color="rgb(100%, 59.848022%, 30.657959%)" offset="0.90625"/><stop stop-opacity="1" stop-color="rgb(100%, 59.611511%, 30.621338%)" offset="0.914062"/><stop stop-opacity="1" stop-color="rgb(100%, 59.376526%, 30.584717%)" offset="0.921875"/><stop stop-opacity="1" stop-color="rgb(100%, 59.140015%, 30.548096%)" offset="0.929688"/><stop stop-opacity="1" stop-color="rgb(100%, 58.903503%, 30.511475%)" offset="0.9375"/><stop stop-opacity="1" stop-color="rgb(100%, 58.668518%, 30.474854%)" offset="0.945312"/><stop stop-opacity="1" stop-color="rgb(100%, 58.432007%, 30.438232%)" offset="0.953125"/><stop stop-opacity="1" stop-color="rgb(100%, 58.197021%, 30.401611%)" offset="0.960938"/><stop stop-opacity="1" stop-color="rgb(100%, 57.96051%, 30.36499%)" offset="0.96875"/><stop stop-opacity="1" stop-color="rgb(100%, 57.723999%, 30.328369%)" offset="0.976562"/><stop stop-opacity="1" stop-color="rgb(100%, 57.489014%, 30.291748%)" offset="0.984375"/><stop stop-opacity="1" stop-color="rgb(100%, 57.252502%, 30.253601%)" offset="0.992188"/><stop stop-opacity="1" stop-color="rgb(100%, 57.015991%, 30.21698%)" offset="1"/></linearGradient><clipPath id="62eb40fb6f"><path d="M 18.996094 18.636719 L 78.554688 18.636719 L 78.554688 78.195312 L 18.996094 78.195312 Z M 18.996094 18.636719 " clip-rule="nonzero"/></clipPath></defs><g clip-path="url(#c834dc1a26)"><g clip-path="url(#f9006ecd44)"><path fill="url(#cbe4674770)" d="M 0.046875 0.488281 L 0.046875 94.003906 L 93.980469 94.003906 L 93.980469 0.488281 Z M 0.046875 0.488281 " fill-rule="nonzero"/></g></g><g clip-path="url(#62eb40fb6f)"><path fill="#fcfefc" d="M 48.773438 18.636719 C 32.363281 18.636719 18.996094 32.003906 18.996094 48.417969 C 18.996094 64.828125 32.363281 78.195312 48.773438 78.195312 C 65.1875 78.195312 78.554688 64.828125 78.554688 48.417969 C 78.554688 32.003906 65.1875 18.636719 48.773438 18.636719 Z M 74.453125 37.828125 L 64.261719 37.828125 C 62.738281 30.550781 59.695312 24.792969 55.988281 21.550781 C 64.328125 23.800781 71.207031 29.886719 74.453125 37.828125 Z M 47.78125 20.6875 L 47.78125 37.828125 L 35.34375 37.828125 C 37.460938 28.101562 42.289062 21.417969 47.78125 20.6875 Z M 49.769531 20.6875 C 55.261719 21.417969 60.089844 28.101562 62.207031 37.828125 L 49.769531 37.828125 Z M 41.628906 21.550781 C 37.855469 24.792969 34.8125 30.550781 33.289062 37.828125 L 23.097656 37.828125 C 26.34375 29.886719 33.222656 23.800781 41.628906 21.550781 Z M 22.371094 39.8125 L 75.246094 39.8125 C 76.105469 42.527344 76.636719 45.4375 76.636719 48.417969 C 76.636719 51.394531 76.171875 54.304688 75.246094 57.019531 L 22.371094 57.019531 C 21.445312 54.304688 20.980469 51.394531 20.980469 48.417969 C 20.980469 45.4375 21.445312 42.527344 22.371094 39.8125 Z M 35.34375 59.003906 L 47.78125 59.003906 L 47.78125 76.144531 C 42.289062 75.414062 37.460938 68.730469 35.34375 59.003906 Z M 49.769531 76.144531 L 49.769531 59.003906 L 62.207031 59.003906 C 60.089844 68.730469 55.261719 75.414062 49.769531 76.144531 Z M 23.097656 59.003906 L 33.355469 59.003906 C 34.878906 66.285156 37.921875 72.039062 41.695312 75.285156 C 33.222656 73.035156 26.34375 66.945312 23.097656 59.003906 Z M 55.921875 75.285156 C 59.695312 72.039062 62.738281 66.285156 64.261719 59.003906 L 74.515625 59.003906 C 71.207031 66.945312 64.328125 73.035156 55.921875 75.285156 Z M 55.921875 75.285156 " fill-opacity="1" fill-rule="nonzero"/></g><path fill="#fcfefc" d="M 45.070312 52.785156 C 45.203125 53.179688 45.53125 53.445312 45.929688 53.445312 C 46.328125 53.445312 46.722656 53.246094 46.855469 52.851562 L 48.773438 48.679688 L 50.695312 52.851562 C 50.828125 53.179688 51.222656 53.445312 51.621094 53.445312 C 51.621094 53.445312 51.621094 53.445312 51.6875 53.445312 C 52.085938 53.445312 52.414062 53.179688 52.546875 52.785156 L 55.328125 44.644531 C 55.523438 44.113281 55.261719 43.585938 54.730469 43.386719 C 54.203125 43.1875 53.671875 43.453125 53.472656 43.984375 L 51.488281 49.738281 L 49.703125 45.902344 C 49.570312 45.570312 49.171875 45.304688 48.773438 45.304688 C 48.378906 45.304688 48.046875 45.503906 47.847656 45.902344 L 46.128906 49.804688 L 44.144531 44.046875 C 43.945312 43.519531 43.414062 43.253906 42.886719 43.453125 C 42.355469 43.652344 42.089844 44.179688 42.289062 44.710938 Z M 45.070312 52.785156 " fill-opacity="1" fill-rule="nonzero"/><path fill="#fcfefc" d="M 25.878906 44.710938 L 28.65625 52.851562 C 28.789062 53.246094 29.121094 53.511719 29.519531 53.511719 C 29.519531 53.511719 29.519531 53.511719 29.585938 53.511719 C 29.980469 53.511719 30.3125 53.3125 30.511719 52.917969 L 32.429688 48.746094 L 34.347656 52.917969 C 34.546875 53.3125 34.878906 53.511719 35.277344 53.511719 C 35.671875 53.511719 36.003906 53.246094 36.136719 52.851562 L 38.914062 44.710938 C 39.113281 44.179688 38.847656 43.652344 38.320312 43.453125 C 37.789062 43.253906 37.261719 43.519531 37.0625 44.046875 L 35.078125 49.804688 L 33.289062 45.96875 C 33.15625 45.636719 32.761719 45.371094 32.363281 45.371094 C 31.96875 45.371094 31.636719 45.570312 31.4375 45.96875 L 29.652344 49.804688 L 27.664062 44.046875 C 27.46875 43.519531 26.9375 43.253906 26.40625 43.453125 C 25.945312 43.585938 25.679688 44.179688 25.878906 44.710938 Z M 25.878906 44.710938 " fill-opacity="1" fill-rule="nonzero"/><path fill="#fcfefc" d="M 61.414062 52.785156 C 61.546875 53.179688 61.878906 53.445312 62.273438 53.445312 C 62.273438 53.445312 62.273438 53.445312 62.339844 53.445312 C 62.738281 53.445312 63.070312 53.246094 63.269531 52.851562 L 65.1875 48.679688 L 67.105469 52.851562 C 67.304688 53.246094 67.636719 53.445312 68.03125 53.445312 C 68.429688 53.445312 68.761719 53.179688 68.894531 52.785156 L 71.671875 44.644531 C 71.871094 44.113281 71.605469 43.585938 71.078125 43.386719 C 70.546875 43.1875 70.015625 43.453125 69.820312 43.984375 L 67.832031 49.738281 L 66.046875 45.902344 C 65.914062 45.570312 65.519531 45.304688 65.121094 45.304688 C 64.722656 45.304688 64.394531 45.503906 64.195312 45.902344 L 62.40625 49.738281 L 60.421875 43.984375 C 60.222656 43.453125 59.695312 43.1875 59.164062 43.386719 C 58.636719 43.585938 58.371094 44.113281 58.570312 44.644531 Z M 61.414062 52.785156 " fill-opacity="1" fill-rule="nonzero"/></svg>