<svg xmlns="http://www.w3.org/2000/svg" xmlns:xlink="http://www.w3.org/1999/xlink" width="126" zoomAndPan="magnify" viewBox="0 0 94.5 94.499998" height="126" preserveAspectRatio="xMidYMid meet" version="1.0"><defs><clipPath id="2458f03884"><path d="M 0 0.488281 L 93.933594 0.488281 L 93.933594 94.003906 L 0 94.003906 Z M 0 0.488281 " clip-rule="nonzero"/></clipPath><clipPath id="168213a346"><path d="M 28.5 0.488281 L 65.433594 0.488281 C 81.171875 0.488281 93.933594 13.25 93.933594 28.988281 L 93.933594 65.921875 C 93.933594 81.664062 81.171875 94.421875 65.433594 94.421875 L 28.5 94.421875 C 12.761719 94.421875 0 81.664062 0 65.921875 L 0 28.988281 C 0 13.25 12.761719 0.488281 28.5 0.488281 " clip-rule="nonzero"/></clipPath><linearGradient x1="0.000000000000014524" gradientTransform="matrix(0.366926, 0, 0, 0.366926, 0.000001, 0.489924)" y1="0" x2="256.000001" gradientUnits="userSpaceOnUse" y2="0" id="6a0f844dba"><stop stop-opacity="1" stop-color="rgb(100%, 19.198608%, 19.198608%)" offset="0"/><stop stop-opacity="1" stop-color="rgb(100%, 19.345093%, 19.241333%)" offset="0.0078125"/><stop stop-opacity="1" stop-color="rgb(100%, 19.639587%, 19.328308%)" offset="0.015625"/><stop stop-opacity="1" stop-color="rgb(100%, 19.934082%, 19.413757%)" offset="0.0234375"/><stop stop-opacity="1" stop-color="rgb(100%, 20.230103%, 19.499207%)" offset="0.03125"/><stop stop-opacity="1" stop-color="rgb(100%, 20.524597%, 19.586182%)" offset="0.0390625"/><stop stop-opacity="1" stop-color="rgb(100%, 20.819092%, 19.671631%)" offset="0.046875"/><stop stop-opacity="1" stop-color="rgb(100%, 21.113586%, 19.75708%)" offset="0.0546875"/><stop stop-opacity="1" stop-color="rgb(100%, 21.408081%, 19.844055%)" offset="0.0625"/><stop stop-opacity="1" stop-color="rgb(100%, 21.702576%, 19.929504%)" offset="0.0703125"/><stop stop-opacity="1" stop-color="rgb(100%, 21.99707%, 20.014954%)" offset="0.078125"/><stop stop-opacity="1" stop-color="rgb(100%, 22.291565%, 20.101929%)" offset="0.0859375"/><stop stop-opacity="1" stop-color="rgb(100%, 22.58606%, 20.187378%)" offset="0.09375"/><stop stop-opacity="1" stop-color="rgb(100%, 22.880554%, 20.272827%)" offset="0.101562"/><stop stop-opacity="1" stop-color="rgb(100%, 23.175049%, 20.359802%)" offset="0.109375"/><stop stop-opacity="1" stop-color="rgb(100%, 23.469543%, 20.445251%)" offset="0.117188"/><stop stop-opacity="1" stop-color="rgb(100%, 23.764038%, 20.530701%)" offset="0.125"/><stop stop-opacity="1" stop-color="rgb(100%, 24.058533%, 20.617676%)" offset="0.132812"/><stop stop-opacity="1" stop-color="rgb(100%, 24.353027%, 20.703125%)" offset="0.140625"/><stop stop-opacity="1" stop-color="rgb(100%, 24.647522%, 20.788574%)" offset="0.148438"/><stop stop-opacity="1" stop-color="rgb(100%, 24.942017%, 20.874023%)" offset="0.15625"/><stop stop-opacity="1" stop-color="rgb(100%, 25.236511%, 20.960999%)" offset="0.164062"/><stop stop-opacity="1" stop-color="rgb(100%, 25.531006%, 21.046448%)" offset="0.171875"/><stop stop-opacity="1" stop-color="rgb(100%, 25.8255%, 21.131897%)" offset="0.179688"/><stop stop-opacity="1" stop-color="rgb(100%, 26.119995%, 21.218872%)" offset="0.1875"/><stop stop-opacity="1" stop-color="rgb(100%, 26.41449%, 21.304321%)" offset="0.195312"/><stop stop-opacity="1" stop-color="rgb(100%, 26.708984%, 21.389771%)" offset="0.203125"/><stop stop-opacity="1" stop-color="rgb(100%, 27.003479%, 21.476746%)" offset="0.210938"/><stop stop-opacity="1" stop-color="rgb(100%, 27.297974%, 21.562195%)" offset="0.21875"/><stop stop-opacity="1" stop-color="rgb(100%, 27.592468%, 21.647644%)" offset="0.226562"/><stop stop-opacity="1" stop-color="rgb(100%, 27.886963%, 21.734619%)" offset="0.234375"/><stop stop-opacity="1" stop-color="rgb(100%, 28.181458%, 21.820068%)" offset="0.242188"/><stop stop-opacity="1" stop-color="rgb(100%, 28.475952%, 21.905518%)" offset="0.25"/><stop stop-opacity="1" stop-color="rgb(100%, 28.770447%, 21.992493%)" offset="0.257813"/><stop stop-opacity="1" stop-color="rgb(100%, 29.064941%, 22.077942%)" offset="0.265625"/><stop stop-opacity="1" stop-color="rgb(100%, 29.359436%, 22.163391%)" offset="0.273438"/><stop stop-opacity="1" stop-color="rgb(100%, 29.653931%, 22.250366%)" offset="0.28125"/><stop stop-opacity="1" stop-color="rgb(100%, 29.948425%, 22.335815%)" offset="0.289062"/><stop stop-opacity="1" stop-color="rgb(100%, 30.24292%, 22.421265%)" offset="0.296875"/><stop stop-opacity="1" stop-color="rgb(100%, 30.537415%, 22.50824%)" offset="0.304688"/><stop stop-opacity="1" stop-color="rgb(100%, 30.831909%, 22.593689%)" offset="0.3125"/><stop stop-opacity="1" stop-color="rgb(100%, 31.126404%, 22.679138%)" offset="0.320312"/><stop stop-opacity="1" stop-color="rgb(100%, 31.420898%, 22.766113%)" offset="0.328125"/><stop stop-opacity="1" stop-color="rgb(100%, 31.715393%, 22.851562%)" offset="0.335937"/><stop stop-opacity="1" stop-color="rgb(100%, 32.009888%, 22.937012%)" offset="0.34375"/><stop stop-opacity="1" stop-color="rgb(100%, 32.304382%, 23.022461%)" offset="0.351562"/><stop stop-opacity="1" stop-color="rgb(100%, 32.600403%, 23.109436%)" offset="0.359375"/><stop stop-opacity="1" stop-color="rgb(100%, 32.894897%, 23.194885%)" offset="0.367187"/><stop stop-opacity="1" stop-color="rgb(100%, 33.189392%, 23.280334%)" offset="0.375"/><stop stop-opacity="1" stop-color="rgb(100%, 33.483887%, 23.36731%)" offset="0.382812"/><stop stop-opacity="1" stop-color="rgb(100%, 33.778381%, 23.452759%)" offset="0.390625"/><stop stop-opacity="1" stop-color="rgb(100%, 34.072876%, 23.538208%)" offset="0.398438"/><stop stop-opacity="1" stop-color="rgb(100%, 34.367371%, 23.625183%)" offset="0.40625"/><stop stop-opacity="1" stop-color="rgb(100%, 34.661865%, 23.710632%)" offset="0.414062"/><stop stop-opacity="1" stop-color="rgb(100%, 34.95636%, 23.796082%)" offset="0.421875"/><stop stop-opacity="1" stop-color="rgb(100%, 35.250854%, 23.883057%)" offset="0.429687"/><stop stop-opacity="1" stop-color="rgb(100%, 35.545349%, 23.968506%)" offset="0.4375"/><stop stop-opacity="1" stop-color="rgb(100%, 35.839844%, 24.053955%)" offset="0.445312"/><stop stop-opacity="1" stop-color="rgb(100%, 36.134338%, 24.14093%)" offset="0.453125"/><stop stop-opacity="1" stop-color="rgb(100%, 36.428833%, 24.226379%)" offset="0.460937"/><stop stop-opacity="1" stop-color="rgb(100%, 36.723328%, 24.311829%)" offset="0.46875"/><stop stop-opacity="1" stop-color="rgb(100%, 37.017822%, 24.398804%)" offset="0.476562"/><stop stop-opacity="1" stop-color="rgb(100%, 37.312317%, 24.484253%)" offset="0.484375"/><stop stop-opacity="1" stop-color="rgb(100%, 37.606812%, 24.569702%)" offset="0.492187"/><stop stop-opacity="1" stop-color="rgb(100%, 37.901306%, 24.656677%)" offset="0.5"/><stop stop-opacity="1" stop-color="rgb(100%, 38.195801%, 24.742126%)" offset="0.507812"/><stop stop-opacity="1" stop-color="rgb(100%, 38.490295%, 24.827576%)" offset="0.515625"/><stop stop-opacity="1" stop-color="rgb(100%, 38.78479%, 24.914551%)" offset="0.523437"/><stop stop-opacity="1" stop-color="rgb(100%, 39.079285%, 25%)" offset="0.53125"/><stop stop-opacity="1" stop-color="rgb(100%, 39.373779%, 25.085449%)" offset="0.539062"/><stop stop-opacity="1" stop-color="rgb(100%, 39.668274%, 25.170898%)" offset="0.546875"/><stop stop-opacity="1" stop-color="rgb(100%, 39.962769%, 25.257874%)" offset="0.554688"/><stop stop-opacity="1" stop-color="rgb(100%, 40.257263%, 25.343323%)" offset="0.5625"/><stop stop-opacity="1" stop-color="rgb(100%, 40.551758%, 25.428772%)" offset="0.570312"/><stop stop-opacity="1" stop-color="rgb(100%, 40.846252%, 25.515747%)" offset="0.578125"/><stop stop-opacity="1" stop-color="rgb(100%, 41.140747%, 25.601196%)" offset="0.585937"/><stop stop-opacity="1" stop-color="rgb(100%, 41.435242%, 25.686646%)" offset="0.59375"/><stop stop-opacity="1" stop-color="rgb(100%, 41.729736%, 25.773621%)" offset="0.601562"/><stop stop-opacity="1" stop-color="rgb(100%, 42.024231%, 25.85907%)" offset="0.609375"/><stop stop-opacity="1" stop-color="rgb(100%, 42.318726%, 25.944519%)" offset="0.617187"/><stop stop-opacity="1" stop-color="rgb(100%, 42.61322%, 26.031494%)" offset="0.625"/><stop stop-opacity="1" stop-color="rgb(100%, 42.907715%, 26.116943%)" offset="0.632812"/><stop stop-opacity="1" stop-color="rgb(100%, 43.202209%, 26.202393%)" offset="0.640625"/><stop stop-opacity="1" stop-color="rgb(100%, 43.496704%, 26.289368%)" offset="0.648437"/><stop stop-opacity="1" stop-color="rgb(100%, 43.791199%, 26.374817%)" offset="0.65625"/><stop stop-opacity="1" stop-color="rgb(100%, 44.085693%, 26.460266%)" offset="0.664062"/><stop stop-opacity="1" stop-color="rgb(100%, 44.380188%, 26.547241%)" offset="0.671875"/><stop stop-opacity="1" stop-color="rgb(100%, 44.676208%, 26.63269%)" offset="0.679687"/><stop stop-opacity="1" stop-color="rgb(100%, 44.970703%, 26.71814%)" offset="0.6875"/><stop stop-opacity="1" stop-color="rgb(100%, 45.265198%, 26.805115%)" offset="0.695312"/><stop stop-opacity="1" stop-color="rgb(100%, 45.559692%, 26.890564%)" offset="0.703125"/><stop stop-opacity="1" stop-color="rgb(100%, 45.854187%, 26.976013%)" offset="0.710937"/><stop stop-opacity="1" stop-color="rgb(100%, 46.148682%, 27.062988%)" offset="0.71875"/><stop stop-opacity="1" stop-color="rgb(100%, 46.443176%, 27.148438%)" offset="0.726562"/><stop stop-opacity="1" stop-color="rgb(100%, 46.737671%, 27.233887%)" offset="0.734375"/><stop stop-opacity="1" stop-color="rgb(100%, 47.032166%, 27.319336%)" offset="0.742187"/><stop stop-opacity="1" stop-color="rgb(100%, 47.32666%, 27.406311%)" offset="0.75"/><stop stop-opacity="1" stop-color="rgb(100%, 47.621155%, 27.49176%)" offset="0.757812"/><stop stop-opacity="1" stop-color="rgb(100%, 47.915649%, 27.577209%)" offset="0.765625"/><stop stop-opacity="1" stop-color="rgb(100%, 48.210144%, 27.664185%)" offset="0.773437"/><stop stop-opacity="1" stop-color="rgb(100%, 48.504639%, 27.749634%)" offset="0.78125"/><stop stop-opacity="1" stop-color="rgb(100%, 48.799133%, 27.835083%)" offset="0.789062"/><stop stop-opacity="1" stop-color="rgb(100%, 49.093628%, 27.922058%)" offset="0.796875"/><stop stop-opacity="1" stop-color="rgb(100%, 49.388123%, 28.007507%)" offset="0.804688"/><stop stop-opacity="1" stop-color="rgb(100%, 49.682617%, 28.092957%)" offset="0.8125"/><stop stop-opacity="1" stop-color="rgb(100%, 49.977112%, 28.179932%)" offset="0.820312"/><stop stop-opacity="1" stop-color="rgb(100%, 50.271606%, 28.265381%)" offset="0.828125"/><stop stop-opacity="1" stop-color="rgb(100%, 50.566101%, 28.35083%)" offset="0.835937"/><stop stop-opacity="1" stop-color="rgb(100%, 50.860596%, 28.437805%)" offset="0.84375"/><stop stop-opacity="1" stop-color="rgb(100%, 51.15509%, 28.523254%)" offset="0.851562"/><stop stop-opacity="1" stop-color="rgb(100%, 51.449585%, 28.608704%)" offset="0.859375"/><stop stop-opacity="1" stop-color="rgb(100%, 51.74408%, 28.695679%)" offset="0.867187"/><stop stop-opacity="1" stop-color="rgb(100%, 52.038574%, 28.781128%)" offset="0.875"/><stop stop-opacity="1" stop-color="rgb(100%, 52.333069%, 28.866577%)" offset="0.882812"/><stop stop-opacity="1" stop-color="rgb(100%, 52.627563%, 28.953552%)" offset="0.890625"/><stop stop-opacity="1" stop-color="rgb(100%, 52.922058%, 29.039001%)" offset="0.898437"/><stop stop-opacity="1" stop-color="rgb(100%, 53.216553%, 29.124451%)" offset="0.90625"/><stop stop-opacity="1" stop-color="rgb(100%, 53.511047%, 29.211426%)" offset="0.914062"/><stop stop-opacity="1" stop-color="rgb(100%, 53.805542%, 29.296875%)" offset="0.921875"/><stop stop-opacity="1" stop-color="rgb(100%, 54.100037%, 29.382324%)" offset="0.929687"/><stop stop-opacity="1" stop-color="rgb(100%, 54.394531%, 29.467773%)" offset="0.9375"/><stop stop-opacity="1" stop-color="rgb(100%, 54.689026%, 29.554749%)" offset="0.945312"/><stop stop-opacity="1" stop-color="rgb(100%, 54.983521%, 29.640198%)" offset="0.953125"/><stop stop-opacity="1" stop-color="rgb(100%, 55.278015%, 29.725647%)" offset="0.960937"/><stop stop-opacity="1" stop-color="rgb(100%, 55.57251%, 29.812622%)" offset="0.96875"/><stop stop-opacity="1" stop-color="rgb(100%, 55.867004%, 29.898071%)" offset="0.976562"/><stop stop-opacity="1" stop-color="rgb(100%, 56.161499%, 29.983521%)" offset="0.984375"/><stop stop-opacity="1" stop-color="rgb(100%, 56.455994%, 30.070496%)" offset="0.992187"/><stop stop-opacity="1" stop-color="rgb(100%, 56.750488%, 30.155945%)" offset="1"/></linearGradient><clipPath id="fd365b9bf6"><path d="M 16.21875 21.011719 L 77.5625 21.011719 L 77.5625 74.019531 L 16.21875 74.019531 Z M 16.21875 21.011719 " clip-rule="nonzero"/></clipPath></defs><g clip-path="url(#2458f03884)"><g clip-path="url(#168213a346)"><path fill="url(#6a0f844dba)" d="M 0 0.488281 L 0 94.003906 L 93.933594 94.003906 L 93.933594 0.488281 Z M 0 0.488281 " fill-rule="nonzero"/></g></g><g clip-path="url(#fd365b9bf6)"><path fill="#f1f5f9" d="M 72.558594 21.011719 L 21.226562 21.011719 C 20.898438 21.015625 20.574219 21.046875 20.253906 21.109375 C 19.929688 21.175781 19.617188 21.269531 19.316406 21.398438 C 19.015625 21.523438 18.726562 21.675781 18.453125 21.859375 C 18.183594 22.042969 17.929688 22.25 17.699219 22.484375 C 17.464844 22.714844 17.261719 22.96875 17.078125 23.242188 C 16.894531 23.515625 16.742188 23.804688 16.617188 24.109375 C 16.492188 24.414062 16.394531 24.726562 16.332031 25.050781 C 16.265625 25.371094 16.234375 25.699219 16.234375 26.027344 L 16.234375 69.003906 C 16.234375 69.335938 16.265625 69.660156 16.332031 69.984375 C 16.394531 70.304688 16.492188 70.621094 16.617188 70.921875 C 16.742188 71.226562 16.894531 71.515625 17.078125 71.789062 C 17.261719 72.0625 17.464844 72.316406 17.699219 72.550781 C 17.929688 72.78125 18.183594 72.988281 18.453125 73.171875 C 18.726562 73.355469 19.015625 73.511719 19.316406 73.636719 C 19.617188 73.761719 19.929688 73.859375 20.253906 73.921875 C 20.574219 73.988281 20.898438 74.019531 21.226562 74.019531 L 72.558594 74.019531 C 72.882812 74.019531 73.207031 73.988281 73.53125 73.921875 C 73.851562 73.859375 74.164062 73.761719 74.464844 73.636719 C 74.769531 73.511719 75.054688 73.355469 75.328125 73.171875 C 75.601562 72.988281 75.851562 72.78125 76.082031 72.550781 C 76.316406 72.316406 76.523438 72.0625 76.703125 71.789062 C 76.886719 71.515625 77.039062 71.226562 77.164062 70.921875 C 77.292969 70.621094 77.386719 70.304688 77.449219 69.984375 C 77.515625 69.660156 77.546875 69.335938 77.546875 69.003906 L 77.546875 26.027344 C 77.546875 25.699219 77.515625 25.371094 77.449219 25.050781 C 77.386719 24.726562 77.292969 24.414062 77.164062 24.109375 C 77.039062 23.804688 76.886719 23.515625 76.703125 23.242188 C 76.523438 22.96875 76.316406 22.714844 76.082031 22.484375 C 75.851562 22.25 75.601562 22.042969 75.328125 21.859375 C 75.054688 21.675781 74.769531 21.523438 74.464844 21.398438 C 74.164062 21.269531 73.851562 21.175781 73.53125 21.109375 C 73.207031 21.046875 72.882812 21.015625 72.558594 21.011719 Z M 21.226562 22.445312 L 72.558594 22.445312 C 73.03125 22.445312 73.484375 22.539062 73.921875 22.71875 C 74.355469 22.902344 74.742188 23.160156 75.074219 23.496094 C 75.410156 23.832031 75.667969 24.21875 75.847656 24.65625 C 76.03125 25.097656 76.121094 25.554688 76.121094 26.027344 L 76.121094 29.609375 L 17.660156 29.609375 L 17.660156 26.027344 C 17.660156 25.554688 17.753906 25.097656 17.933594 24.65625 C 18.113281 24.21875 18.371094 23.832031 18.707031 23.496094 C 19.039062 23.160156 19.425781 22.902344 19.863281 22.71875 C 20.296875 22.539062 20.753906 22.445312 21.226562 22.445312 Z M 72.558594 72.585938 L 21.226562 72.585938 C 20.753906 72.585938 20.296875 72.496094 19.863281 72.3125 C 19.425781 72.132812 19.039062 71.871094 18.707031 71.535156 C 18.371094 71.203125 18.113281 70.8125 17.933594 70.375 C 17.753906 69.9375 17.660156 69.480469 17.660156 69.003906 L 17.660156 31.042969 L 76.121094 31.042969 L 76.121094 69.003906 C 76.121094 69.480469 76.03125 69.9375 75.847656 70.375 C 75.667969 70.8125 75.410156 71.203125 75.074219 71.535156 C 74.742188 71.871094 74.355469 72.132812 73.921875 72.3125 C 73.484375 72.496094 73.03125 72.585938 72.558594 72.585938 Z M 72.558594 72.585938 " fill-opacity="1" fill-rule="nonzero"/></g><path fill="#f1f5f9" d="M 21.9375 28.175781 C 22.222656 28.175781 22.496094 28.121094 22.757812 28.011719 C 23.019531 27.902344 23.25 27.75 23.449219 27.546875 C 23.652344 27.34375 23.804688 27.113281 23.914062 26.851562 C 24.023438 26.585938 24.078125 26.3125 24.078125 26.027344 C 24.078125 25.742188 24.023438 25.46875 23.914062 25.207031 C 23.804688 24.941406 23.652344 24.710938 23.449219 24.507812 C 23.25 24.304688 23.019531 24.152344 22.757812 24.042969 C 22.496094 23.933594 22.222656 23.878906 21.9375 23.878906 C 21.65625 23.878906 21.382812 23.933594 21.121094 24.042969 C 20.859375 24.152344 20.625 24.304688 20.425781 24.507812 C 20.226562 24.710938 20.070312 24.941406 19.960938 25.207031 C 19.855469 25.46875 19.800781 25.742188 19.800781 26.027344 C 19.800781 26.3125 19.855469 26.585938 19.964844 26.847656 C 20.070312 27.113281 20.226562 27.34375 20.425781 27.546875 C 20.628906 27.746094 20.859375 27.902344 21.121094 28.011719 C 21.382812 28.121094 21.65625 28.175781 21.9375 28.175781 Z M 21.9375 25.3125 C 22.136719 25.3125 22.304688 25.382812 22.441406 25.519531 C 22.582031 25.660156 22.652344 25.828125 22.652344 26.027344 C 22.652344 26.226562 22.582031 26.394531 22.441406 26.535156 C 22.304688 26.675781 22.136719 26.742188 21.9375 26.742188 C 21.742188 26.742188 21.574219 26.675781 21.433594 26.535156 C 21.296875 26.394531 21.226562 26.226562 21.226562 26.027344 C 21.226562 25.828125 21.296875 25.660156 21.433594 25.519531 C 21.574219 25.382812 21.742188 25.3125 21.9375 25.3125 Z M 21.9375 25.3125 " fill-opacity="1" fill-rule="nonzero"/><path fill="#f1f5f9" d="M 27.640625 28.175781 C 27.925781 28.175781 28.199219 28.121094 28.460938 28.011719 C 28.722656 27.902344 28.953125 27.75 29.152344 27.546875 C 29.355469 27.34375 29.507812 27.113281 29.617188 26.851562 C 29.726562 26.585938 29.78125 26.3125 29.78125 26.027344 C 29.78125 25.742188 29.726562 25.46875 29.617188 25.207031 C 29.507812 24.941406 29.355469 24.710938 29.152344 24.507812 C 28.953125 24.304688 28.722656 24.152344 28.460938 24.042969 C 28.199219 23.933594 27.925781 23.878906 27.640625 23.878906 C 27.359375 23.878906 27.085938 23.933594 26.824219 24.042969 C 26.5625 24.152344 26.328125 24.304688 26.128906 24.507812 C 25.929688 24.710938 25.773438 24.941406 25.664062 25.207031 C 25.558594 25.46875 25.503906 25.742188 25.503906 26.027344 C 25.503906 26.3125 25.558594 26.585938 25.667969 26.847656 C 25.773438 27.113281 25.929688 27.34375 26.128906 27.546875 C 26.332031 27.746094 26.5625 27.902344 26.824219 28.011719 C 27.085938 28.121094 27.359375 28.175781 27.640625 28.175781 Z M 27.640625 25.3125 C 27.839844 25.3125 28.007812 25.382812 28.144531 25.519531 C 28.285156 25.660156 28.355469 25.828125 28.355469 26.027344 C 28.355469 26.226562 28.285156 26.394531 28.144531 26.535156 C 28.007812 26.675781 27.839844 26.742188 27.640625 26.742188 C 27.445312 26.742188 27.277344 26.675781 27.136719 26.535156 C 27 26.394531 26.929688 26.226562 26.929688 26.027344 C 26.929688 25.828125 27 25.660156 27.136719 25.519531 C 27.277344 25.382812 27.445312 25.3125 27.640625 25.3125 Z M 27.640625 25.3125 " fill-opacity="1" fill-rule="nonzero"/><path fill="#f1f5f9" d="M 33.34375 28.175781 C 33.628906 28.175781 33.902344 28.121094 34.164062 28.011719 C 34.425781 27.902344 34.65625 27.75 34.859375 27.546875 C 35.058594 27.34375 35.210938 27.113281 35.320312 26.851562 C 35.429688 26.585938 35.484375 26.3125 35.484375 26.027344 C 35.484375 25.742188 35.429688 25.46875 35.320312 25.207031 C 35.210938 24.941406 35.058594 24.710938 34.859375 24.507812 C 34.65625 24.304688 34.425781 24.152344 34.164062 24.042969 C 33.902344 23.933594 33.628906 23.878906 33.34375 23.878906 C 33.0625 23.878906 32.789062 23.933594 32.527344 24.042969 C 32.265625 24.152344 32.035156 24.304688 31.832031 24.507812 C 31.632812 24.710938 31.476562 24.941406 31.371094 25.207031 C 31.261719 25.46875 31.207031 25.742188 31.207031 26.027344 C 31.207031 26.3125 31.261719 26.585938 31.371094 26.847656 C 31.480469 27.113281 31.632812 27.34375 31.832031 27.546875 C 32.035156 27.746094 32.265625 27.902344 32.527344 28.011719 C 32.789062 28.121094 33.0625 28.175781 33.34375 28.175781 Z M 33.34375 25.3125 C 33.542969 25.3125 33.710938 25.382812 33.847656 25.519531 C 33.988281 25.660156 34.058594 25.828125 34.058594 26.027344 C 34.058594 26.226562 33.988281 26.394531 33.847656 26.535156 C 33.710938 26.675781 33.542969 26.742188 33.34375 26.742188 C 33.148438 26.742188 32.980469 26.675781 32.839844 26.535156 C 32.703125 26.394531 32.632812 26.226562 32.632812 26.027344 C 32.632812 25.828125 32.703125 25.660156 32.839844 25.519531 C 32.980469 25.382812 33.148438 25.3125 33.34375 25.3125 Z M 33.34375 25.3125 " fill-opacity="1" fill-rule="nonzero"/><path fill="#f1f5f9" d="M 51.167969 26.742188 L 72.558594 26.742188 C 72.753906 26.742188 72.921875 26.675781 73.0625 26.535156 C 73.199219 26.394531 73.269531 26.226562 73.269531 26.027344 C 73.269531 25.828125 73.199219 25.660156 73.0625 25.519531 C 72.921875 25.382812 72.753906 25.3125 72.558594 25.3125 L 51.167969 25.3125 C 50.972656 25.3125 50.804688 25.382812 50.664062 25.519531 C 50.523438 25.660156 50.457031 25.828125 50.457031 26.027344 C 50.457031 26.226562 50.523438 26.394531 50.664062 26.535156 C 50.804688 26.675781 50.972656 26.742188 51.167969 26.742188 Z M 51.167969 26.742188 " fill-opacity="1" fill-rule="nonzero"/><path fill="#f1f5f9" d="M 55.027344 50.382812 L 61.898438 43.480469 C 62.117188 43.257812 62.316406 43.019531 62.488281 42.757812 C 62.664062 42.496094 62.808594 42.222656 62.929688 41.933594 C 63.050781 41.644531 63.140625 41.34375 63.199219 41.039062 C 63.261719 40.730469 63.292969 40.421875 63.292969 40.105469 C 63.292969 39.792969 63.261719 39.484375 63.203125 39.175781 C 63.140625 38.867188 63.050781 38.570312 62.933594 38.28125 C 62.8125 37.992188 62.667969 37.714844 62.492188 37.457031 C 62.320312 37.195312 62.121094 36.953125 61.902344 36.730469 C 61.683594 36.511719 61.441406 36.3125 61.183594 36.140625 C 60.921875 35.964844 60.648438 35.816406 60.363281 35.699219 C 60.074219 35.578125 59.777344 35.488281 59.46875 35.425781 C 59.164062 35.367188 58.855469 35.335938 58.542969 35.335938 C 58.230469 35.335938 57.921875 35.367188 57.617188 35.429688 C 57.3125 35.488281 57.015625 35.582031 56.726562 35.699219 C 56.4375 35.820312 56.164062 35.96875 55.90625 36.140625 C 55.648438 36.316406 55.40625 36.515625 55.1875 36.738281 L 48.316406 43.636719 L 39.554688 34.832031 C 39.414062 34.691406 39.246094 34.625 39.046875 34.625 C 38.851562 34.625 38.683594 34.691406 38.542969 34.832031 L 29.988281 43.429688 C 29.851562 43.570312 29.78125 43.738281 29.78125 43.933594 C 29.78125 44.132812 29.851562 44.300781 29.988281 44.441406 L 38.753906 53.246094 L 32.128906 59.902344 C 32.03125 60.007812 31.96875 60.132812 31.933594 60.269531 L 30.507812 67.433594 C 30.484375 67.550781 30.488281 67.664062 30.523438 67.78125 C 30.558594 67.894531 30.617188 67.996094 30.703125 68.078125 C 30.785156 68.164062 30.886719 68.222656 31 68.257812 C 31.113281 68.292969 31.230469 68.300781 31.347656 68.277344 L 38.476562 66.84375 C 38.613281 66.808594 38.734375 66.742188 38.839844 66.648438 L 45.464844 59.992188 L 54.230469 68.796875 C 54.367188 68.9375 54.535156 69.003906 54.734375 69.003906 C 54.929688 69.003906 55.097656 68.9375 55.238281 68.796875 L 63.792969 60.199219 C 63.933594 60.058594 64 59.890625 64 59.695312 C 64 59.496094 63.933594 59.328125 63.792969 59.1875 Z M 38.335938 65.128906 L 33.640625 60.410156 L 54.019531 39.933594 L 58.714844 44.652344 Z M 56.195312 37.75 C 56.503906 37.433594 56.863281 37.191406 57.273438 37.019531 C 57.679688 36.851562 58.105469 36.765625 58.546875 36.761719 C 58.988281 36.761719 59.410156 36.847656 59.820312 37.015625 C 60.226562 37.183594 60.585938 37.425781 60.898438 37.738281 C 61.210938 38.054688 61.453125 38.414062 61.621094 38.824219 C 61.789062 39.234375 61.871094 39.660156 61.871094 40.105469 C 61.871094 40.550781 61.785156 40.976562 61.617188 41.382812 C 61.445312 41.792969 61.203125 42.15625 60.890625 42.46875 L 59.722656 43.636719 L 55.027344 38.921875 Z M 39.046875 36.351562 L 41.605469 38.921875 L 40.328125 40.207031 C 40.1875 40.34375 40.121094 40.515625 40.121094 40.710938 C 40.121094 40.90625 40.191406 41.074219 40.332031 41.214844 C 40.46875 41.355469 40.636719 41.425781 40.832031 41.425781 C 41.027344 41.425781 41.195312 41.355469 41.335938 41.21875 L 42.613281 39.933594 L 44.457031 41.785156 L 43.179688 43.070312 C 43.042969 43.210938 42.972656 43.378906 42.972656 43.574219 C 42.972656 43.773438 43.042969 43.941406 43.183594 44.082031 C 43.320312 44.21875 43.488281 44.289062 43.683594 44.289062 C 43.878906 44.289062 44.046875 44.222656 44.1875 44.082031 L 45.464844 42.800781 L 47.308594 44.652344 L 41.902344 50.085938 L 33.640625 41.785156 Z M 31.5 43.933594 L 32.632812 42.800781 L 40.890625 51.097656 L 39.761719 52.234375 Z M 33.070312 61.863281 L 36.890625 65.699219 L 32.113281 66.660156 Z M 54.734375 67.277344 L 46.472656 58.976562 L 47.605469 57.839844 L 55.863281 66.140625 Z M 56.871094 65.128906 L 48.613281 56.828125 L 54.019531 51.394531 L 55.863281 53.246094 L 54.585938 54.53125 C 54.449219 54.671875 54.378906 54.839844 54.378906 55.035156 C 54.378906 55.234375 54.449219 55.402344 54.589844 55.539062 C 54.726562 55.679688 54.894531 55.75 55.089844 55.75 C 55.285156 55.75 55.453125 55.683594 55.59375 55.542969 L 56.871094 54.261719 L 58.714844 56.113281 L 57.4375 57.398438 C 57.300781 57.535156 57.230469 57.707031 57.230469 57.902344 C 57.234375 58.097656 57.300781 58.265625 57.441406 58.40625 C 57.578125 58.546875 57.746094 58.617188 57.941406 58.617188 C 58.136719 58.617188 58.304688 58.546875 58.445312 58.410156 L 59.722656 57.125 L 62.28125 59.695312 Z M 56.871094 65.128906 " fill-opacity="1" fill-rule="nonzero"/></svg>